<svg height="50" viewBox="0 0 148 90" class="platform-meganav-logolist-logo" fill="currentColor"><path d="M227.92 82.07l-13.69 23.7-46.81-81.08L23.7 273.58H121a23.7 23.7 0 0023.71 23.7h-121a23.7 23.7 0 01-20.53-35.55L146.89 12.84a23.7 23.7 0 0141.06 0l39.97 69.23z"/><path fill="#fff" d="M331.66 261.73l-90.05-155.95-13.69-23.7-13.69 23.7-90.04 155.95a23.7 23.7 0 0020.52 35.55h166.4a23.7 23.7 0 0020.53-35.55h.02zm-186.95 11.85l83.21-144.1 83.2 144.1h-166.4z"/><path fill="#fff" d="M396.05 285.43a23.7 23.7 0 01-20.52 11.85H311.1a23.7 23.7 0 0023.7-23.7h40.67L260.1 73.75l-18.49 32.03-13.69-23.7 11.66-20.18a23.7 23.7 0 0141.05 0l115.42 199.83a23.7 23.7 0 010 23.7z"/></svg>