<svg height="50" viewBox="0 0 148 90" class="platform-meganav-logolist-logo" fill="currentColor"><path d="M35 23.5h27.85v2.21h-25.3v16.7h23.79v2.22h-23.8v18.34h25.6v2.22H34.99v-41.7zm30.34 0h2.96l13.12 18.33 13.4-18.33L113.06.2 83.1 43.77 98.54 65.2h-3.08L81.42 45.7l-14.1 19.5H64.3l15.55-21.43-14.5-20.26zm34.3 2.21V23.5h31.74v2.21h-14.62v39.47h-2.56V25.71H99.64zM.14 23.5h3.2l44 66-18.18-24.31L2.81 26.65 2.7 65.18H.14V23.5zm130.98 38.8a.9.9 0 01-.9-.93c0-.53.38-.93.9-.93.53 0 .92.4.92.93a.9.9 0 01-.92.93zm2.51-2.45H135c.02.75.56 1.24 1.35 1.24.9 0 1.4-.53 1.4-1.54V53.2h1.39v6.36c0 1.8-1.05 2.85-2.77 2.85-1.62 0-2.74-1.01-2.74-2.56zm7.33-.08h1.37c.12.86.95 1.4 2.15 1.4 1.12 0 1.94-.58 1.94-1.38 0-.68-.52-1.1-1.7-1.38l-1.16-.28c-1.62-.38-2.36-1.16-2.36-2.48 0-1.6 1.3-2.67 3.26-2.67 1.82 0 3.15 1.07 3.23 2.58h-1.36c-.13-.83-.85-1.35-1.9-1.35-1.1 0-1.82.53-1.82 1.34 0 .65.47 1.01 1.64 1.29l.98.24c1.84.43 2.6 1.18 2.6 2.53 0 1.72-1.33 2.8-3.45 2.8-1.99 0-3.33-1.03-3.43-2.64z"/></svg>