<svg height="2500" viewBox="0 -0.11 49.74 51.32" width="2418" xmlns="http://www.w3.org/2000/svg"><path d="M49.63 11.56a.8.8 0 01.02.21v10.97a.8.8 0 01-.4.7l-9.2 5.3v10.51a.8.8 0 01-.4.7L20.41 51c-.04.03-.1.04-.14.06l-.05.02a.8.8 0 01-.41 0c-.03 0-.05-.02-.07-.03l-.13-.05L.4 39.94a.8.8 0 01-.4-.69V6.33c0-.07.01-.14.03-.2 0-.03.02-.05.03-.07a.3.3 0 01.05-.13l.05-.07.07-.1.08-.05.09-.07L10.01.11a.8.8 0 01.8 0l9.61 5.53.1.07.07.06.07.1.05.06c.03.04.04.08.06.13l.02.06a.8.8 0 01.03.21V26.9l8.01-4.6V11.76a.8.8 0 01.03-.2c0-.03.02-.05.03-.07l.05-.13.05-.07.07-.1.08-.05.1-.07 9.6-5.53a.8.8 0 01.8 0l9.61 5.53.1.07.07.06.07.1.06.06.05.13.03.06zm-1.58 10.72v-9.12l-3.36 1.93-4.65 2.68v9.12l8.01-4.6zm-9.6 16.5v-9.12l-4.58 2.6-13.05 7.45v9.22zM1.6 7.73V38.8l17.62 10.14v-9.21l-9.2-5.21H10l-.09-.07-.07-.06-.07-.09-.06-.08-.04-.1-.04-.09-.02-.12-.01-.09V12.33L4.96 9.65 1.6 7.72zm8.81-6l-8 4.61 8 4.61 8-4.6-8-4.62zm4.17 28.77l4.64-2.68V7.71l-3.36 1.94-4.65 2.68v20.1zM39.24 7.16l-8 4.61 8 4.61 8-4.6zm-.8 10.6L33.8 15.1l-3.37-1.93v9.12l4.65 2.68 3.36 1.93zM20.02 38.34l11.74-6.7 5.87-3.35-8-4.61-9.2 5.3-8.4 4.84z" fill="#ff2d20"/></svg>