<svg width="1092" height="1092" fill="currentColor" xmlns="http://www.w3.org/2000/svg" aria-hidden="true" class="logo-wordpress platform-meganav-logolist-logo"><path d="M77.6 545.95c0 185.4 107.75 345.6 263.97 421.53L118.16 355.34A466.58 466.58 0 0077.6 545.95zm784.55-23.63c0-57.89-20.79-97.97-38.62-129.17-23.74-38.58-45.99-71.26-45.99-109.84 0-43.05 32.65-83.13 78.64-83.13 2.08 0 4.05.26 6.08.38C778.92 124.22 667.9 77.6 545.97 77.6c-163.62 0-307.58 83.95-391.33 211.1 11 .33 21.36.56 30.14.56 49 0 124.83-5.95 124.83-5.95 25.24-1.49 28.22 35.6 3 38.58 0 0-25.37 2.99-53.6 4.47l170.55 507.32 102.5-307.4-72.97-199.93a851.96 851.96 0 01-49.12-4.47c-25.24-1.47-22.28-40.06 2.96-38.58 0 0 77.35 5.95 123.37 5.95 48.98 0 124.82-5.95 124.82-5.95 25.27-1.48 28.24 35.6 3 38.58 0 0-25.42 2.99-53.6 4.47l169.26 503.48 46.7-156.12c20.26-64.78 35.67-111.3 35.67-151.4z"/><path d="M554.19 586.92L413.66 995.25a468.15 468.15 0 00132.31 19.09 468.2 468.2 0 00155.53-26.55 39.63 39.63 0 01-3.33-6.45L554.2 586.92zm402.75-265.68a359.48 359.48 0 013.16 48.16c0 47.53-8.88 100.96-35.62 167.76L781.42 950.8c139.24-81.2 232.9-232.05 232.9-404.85a465.87 465.87 0 00-57.38-224.7z"/><path d="M545.97 0C244.93 0 0 244.91 0 545.95c0 301.08 244.92 545.99 545.97 545.99 301.03 0 546-244.9 546-545.99C1091.96 244.91 847 0 545.97 0zm0 1066.91c-287.24 0-520.94-233.7-520.94-520.96 0-287.22 233.7-520.9 520.94-520.9 287.23 0 520.91 233.68 520.91 520.9 0 287.25-233.7 520.96-520.91 520.96z"/></svg>