<svg width="67" height="60" fill="currentColor" xmlns="http://www.w3.org/2000/svg" class="platform-meganav-logolist-logo"><path fill-rule="evenodd" clip-rule="evenodd" d="M52.92 18.69C61.44 21.32 67 25.55 67 30.01c0 4.45-5.53 8.68-14 11.3 1.98 8.7 1.12 15.64-2.72 17.87-.9.52-1.94.77-3.08.77-3.76 0-8.67-2.67-13.64-7.31C28.58 57.31 23.66 60 19.9 60a5.97 5.97 0 01-3.07-.77c-3.85-2.22-4.73-9.17-2.76-17.9C5.56 38.7 0 34.46 0 30c0-4.45 5.53-8.67 14.03-11.3C12.04 10 12.9 3.05 16.73.83c.9-.52 1.94-.77 3.09-.77 3.76 0 8.67 2.66 13.64 7.3C38.44 2.7 43.36 0 47.12 0v.01c1.12 0 2.16.25 3.04.77 3.85 2.23 4.73 9.18 2.76 17.91zM47.1 3.06c-2.84.01-7.01 2.29-11.46 6.44a66.87 66.87 0 015.68 6.87c3.08.33 6 .84 8.68 1.5.3-1.39.54-2.75.7-4.04.62-5.25-.18-9.32-2.04-10.4a3.15 3.15 0 00-1.56-.35v-.02zM31.3 9.52c-4.45-4.14-8.64-6.4-11.47-6.4v.01a3 3 0 00-1.57.36c-1.85 1.08-2.64 5.16-2 10.4.17 1.29.4 2.62.71 4 2.68-.68 5.6-1.19 8.7-1.52a64.79 64.79 0 015.63-6.85zm16.07 16.75a62.11 62.11 0 001.85-5.42 61.3 61.3 0 00-5.6-1.09 74.47 74.47 0 011.97 3.22 65.14 65.14 0 011.79 3.3zm-7.7 14.45a73.2 73.2 0 003.3-5.25A77.02 77.02 0 0045.78 30a71.69 71.69 0 00-2.84-5.46 75.77 75.77 0 00-3.3-5.22 75.83 75.83 0 00-6.15-.26c-2.08 0-4.14.1-6.17.27a73.19 73.19 0 00-3.3 5.25 71.74 71.74 0 00-2.82 5.48 71.69 71.69 0 002.84 5.46 75.77 75.77 0 003.3 5.22 70.88 70.88 0 0012.32-.01zm9.59-1.57a59.12 59.12 0 00-1.88-5.46 78.19 78.19 0 01-1.78 3.3 75.94 75.94 0 01-1.97 3.26 60.98 60.98 0 005.63-1.1zm-19.53 4.8a56.54 56.54 0 003.8 4.4 53.52 53.52 0 003.75-4.4 69.07 69.07 0 01-3.8.1c-1.26 0-2.52-.05-3.75-.1zm-11.96-4.78c1.79.44 3.66.8 5.6 1.08a91 91 0 01-1.97-3.21 65.14 65.14 0 01-1.79-3.3 62.07 62.07 0 00-1.84 5.43zm19.49-23.1a56.51 56.51 0 00-3.8-4.4 53.52 53.52 0 00-3.76 4.4 69.07 69.07 0 013.8-.1c1.27 0 2.53.04 3.76.1zm-15.87 6.95a75.98 75.98 0 011.96-3.26c-1.95.3-3.83.66-5.62 1.09a59.06 59.06 0 001.88 5.46 77.7 77.7 0 011.78-3.3zM3.03 30c0 2.15 3.13 4.87 7.96 6.95 1.2.5 2.48.97 3.83 1.4a65.28 65.28 0 013.03-8.33 66.1 66.1 0 01-3.07-8.36c-1.33.43-2.61.88-3.79 1.39-4.83 2.06-7.96 4.8-7.96 6.95zm13.28 16.17c-.63 5.25.17 9.33 2.03 10.4.41.23.93.36 1.54.37 2.84 0 7.02-2.28 11.48-6.44a66.98 66.98 0 01-5.68-6.86c-3.08-.33-6-.84-8.68-1.5a42.47 42.47 0 00-.7 4.04zm32.43 10.35c1.85-1.09 2.64-5.17 2-10.41a38.63 38.63 0 00-.71-4 63.9 63.9 0 01-8.7 1.51 64.78 64.78 0 01-5.63 6.85c4.45 4.14 8.64 6.4 11.47 6.4a3 3 0 001.57-.35zm3.47-18.19a42.5 42.5 0 003.78-1.38c4.84-2.06 7.97-4.8 7.98-6.95 0-2.16-3.13-4.88-7.96-6.95a43.2 43.2 0 00-3.84-1.4 65.37 65.37 0 01-3.03 8.32 66.27 66.27 0 013.07 8.36zM39.73 30c0 3.46-2.8 6.27-6.24 6.27A6.26 6.26 0 0127.24 30c0-3.47 2.8-6.28 6.25-6.28A6.26 6.26 0 0139.73 30z"/></svg>