<svg width="512" height="214" xmlns="http://www.w3.org/2000/svg" preserveAspectRatio="xMidYMid"><path d="M35.98 83.48c0-5.54 4.55-7.68 12.1-7.68 10.8 0 24.45 3.28 35.26 9.1V51.49c-11.8-4.69-23.46-6.54-35.27-6.54C19.2 44.94 0 60.02 0 85.2c0 39.25 54.04 33 54.04 49.92 0 6.54-5.68 8.68-13.65 8.68-11.8 0-26.88-4.84-38.83-11.38v33.85a98.59 98.59 0 0038.83 8.1c29.58 0 49.92-14.64 49.92-40.1-.14-42.38-54.33-34.85-54.33-50.78zm96.14-66.98l-34.7 7.4-.14 113.91c0 21.05 15.79 36.55 36.84 36.55 11.66 0 20.2-2.13 24.88-4.69V140.8c-4.55 1.85-27.02 8.4-27.02-12.66V77.65H159V47.36h-27.02l.14-30.86zm71.12 41.38l-2.28-10.52h-30.72V171.8h35.56V87.47c8.39-10.95 22.6-8.96 27.02-7.4V47.36c-4.55-1.7-21.2-4.84-29.58 10.52zm38.25-10.52h35.7V171.8h-35.7V47.36zm0-10.8l35.7-7.69V0l-35.7 7.54v29.01zm109.94 8.38c-13.94 0-22.9 6.54-27.87 11.1l-1.85-8.82h-31.3v165.83l35.56-7.54.15-40.25c5.12 3.7 12.65 8.96 25.17 8.96 25.46 0 48.64-20.48 48.64-65.56-.14-41.25-23.61-63.72-48.5-63.72zm-8.53 98c-8.4 0-13.37-3-16.78-6.7l-.15-52.76c3.7-4.12 8.82-6.96 16.93-6.96 12.94 0 21.9 14.5 21.9 33.13 0 19.06-8.82 33.28-21.9 33.28zM512 110.07c0-36.4-17.64-65.14-51.34-65.14-33.85 0-54.33 28.73-54.33 64.86 0 42.8 24.18 64.42 58.88 64.42 16.92 0 29.72-3.84 39.4-9.24v-28.45c-9.68 4.84-20.77 7.83-34.85 7.83-13.8 0-26.03-4.84-27.6-21.62h69.56c0-1.85.28-9.25.28-12.66zm-70.26-13.51c0-16.07 9.82-22.76 18.78-22.76 8.67 0 17.92 6.69 17.92 22.76h-36.7z" fill="#6772E5"/></svg>