<svg width="256" height="154" xmlns="http://www.w3.org/2000/svg" preserveAspectRatio="xMidYMid"><defs><linearGradient x1="-2.78%" y1="32%" x2="100%" y2="67.56%" id="a"><stop stop-color="#2298BD" offset="0%"/><stop stop-color="#0ED7B5" offset="100%"/></linearGradient></defs><path d="M128 0C93.87 0 72.53 17.07 64 51.2 76.8 34.13 91.73 27.73 108.8 32c9.74 2.43 16.7 9.5 24.4 17.32C145.75 62.06 160.28 76.8 192 76.8c34.13 0 55.47-17.07 64-51.2-12.8 17.07-27.73 23.47-44.8 19.2-9.74-2.43-16.7-9.5-24.4-17.32C174.25 14.74 159.72 0 128 0zM64 76.8C29.87 76.8 8.53 93.87 0 128c12.8-17.07 27.73-23.47 44.8-19.2 9.74 2.43 16.7 9.5 24.4 17.32 12.55 12.74 27.08 27.48 58.8 27.48 34.13 0 55.47-17.07 64-51.2-12.8 17.07-27.73 23.47-44.8 19.2-9.74-2.43-16.7-9.5-24.4-17.32C110.25 91.54 95.72 76.8 64 76.8z" fill="url(#a)"/></svg>