<svg width="60" height="60" fill="currentColor" xmlns="http://www.w3.org/2000/svg" class="platform-meganav-logolist-logo"><path d="M30 0C13.5 0 0 13.5 0 30s13.5 30 30 30 30-13.5 30-30S46.5 0 30 0zM13.29 46.71a23.26 23.26 0 01-6.86-16.28l23.36 23.14c-6-.21-12-2.36-16.5-6.86zm21.85 6.22L7.07 24.86A23.64 23.64 0 0130 6.43c7.93 0 14.79 3.86 19.07 9.64l-3.21 2.79A19.78 19.78 0 0030 10.7a19.49 19.49 0 00-18.21 12.86L36.43 48.2a19.43 19.43 0 0012.43-13.9H38.57V30h15a23.64 23.64 0 01-18.43 22.93z"/></svg>