<svg width="180" height="157" fill="none" xmlns="http://www.w3.org/2000/svg"><path fill-rule="evenodd" clip-rule="evenodd" d="M96.89 86.66c0 6.33 4.74 10.94 10.34 10.94s10.34-4.61 10.34-10.94c0-6.33-4.74-10.94-10.34-10.94S96.9 80.33 96.9 86.66zm40.9 21.84h13.08V50.67h-13.08v57.83zm33.69-68.67l4.38-13.91-27.65-8.7-19.24 61.13a24.1 24.1 0 011.51 8.31c0 10.63-7.54 23.05-23.25 23.05-6.09 0-10.94-1.87-14.61-4.77l-3.7 16.15 24.81 5.69-4.66 14.8 27.65 8.7 8.68-27.6 24.5 2.93 2.24-18.79a8.65 8.65 0 01-5.63 2.08 8.7 8.7 0 117.03-13.8L180 40.86l-8.52-1.02zM48.5 88.41h12.1l-6.05-20.16-6.05 20.16zm58.73-24.8c11.24 0 18.3 6.36 21.4 13.88l13.35-58.2-28.25-6.48-2.48 10.83-5.16-3.37-32.53 49.77L84.3 35.92l-27.64-8.7-7.39 23.45h11.1l22.55 57.83H67.33l-2.81-8.36H44.43l-3.05 8.36H25.95l19.23-48.81L58.84 7.78 30.81.4 0 117.48l26.09 6.87-7.54 23.95 27.64 8.7 10.18-32.35 11.3 7.39 20.66-31.63a24.18 24.18 0 01-4.35-13.75c0-10.63 7.54-23.05 23.25-23.05z" fill="#969594"/></svg>