<svg width="620" height="607" fill="none" xmlns="http://www.w3.org/2000/svg"><g clip-path="url(#clip0)" fill="#A5A5A5"><path d="M619.97 331.6c-.01-1.4-.01-2.81-.08-4.21l-.2-4.24c-.03-.66-.05-1.33-.09-1.99l-.12-1.95c-.1-1.41-.19-2.83-.27-4.24-.08-1.3-.2-2.61-.31-3.91l-.01-.07.01.07-.02-.2v-.02.01l-.02-.23.01.07-.02-.29v.01l-.02-.22v.01l-.02-.26v.01l-.01-.08v.02l-.1-1.62-.14-1.9c-.09-1.14-.23-2.27-.35-3.41-.11-1.15-.21-2.3-.35-3.45a76.04 76.04 0 00-.51-3.37c-.22-1.32-.4-2.65-.58-3.98-.18-1.31-.4-2.61-.61-3.91-.1-.63-.21-1.25-.3-1.88l-.29-2.04c-.1-.68-.2-1.36-.33-2.04-.12-.63-.25-1.27-.39-1.9l-.01-.03v.01l-.15-.72v.01l-.01-.06c-.19-.9-.36-1.81-.53-2.72-.17-.9-.33-1.8-.52-2.69v.01l-.14-.66v.01c-.36-1.73-.77-3.44-1.14-5.17v-.02l-.01-.05v.01l-.02-.11v.01l-.12-.56v.02l-.02-.09-.38-1.84-.42-1.8-.49-1.97c-.15-.62-.29-1.23-.42-1.85-.29-1.31-.56-2.62-.93-3.91l-.59-1.92a27.2 27.2 0 01-.62-2.5l-.12-.71c-.05-.24-.09-.51-.24-.71.05-.1.07-.2.04-.31-.15-.63-.32-1.25-.48-1.87l-.46-1.83a54.46 54.46 0 00-.92-3.3l-.47-1.59c-.15-.51-.32-1.02-.49-1.52-.35-1.03-.74-2.04-1.07-3.07l-.52-1.6-.6-1.73c-.18-.51-.37-1.01-.54-1.52l-.48-1.47c-.18-.56-.36-1.13-.56-1.69l-.6-1.68c-.38-1.06-.72-2.13-1.08-3.19-.34-1.01-.73-2-1.08-3.01l-1.1-3.19c-.38-1.07-.73-2.15-1.1-3.23-.37-1.08-.77-2.15-1.15-3.22-.37-1.04-.72-2.08-1.13-3.11-.43-1.08-.88-2.16-1.3-3.24-.4-1.02-.78-2.06-1.22-3.06l-.73-1.69a218.5 218.5 0 01-1.28-3.11l-.68-1.54.03.06-.68-1.58-.63-1.52-.69-1.56-.69-1.52-.44-1.01-.45-1.07c-.31-.72-.62-1.44-.96-2.14-.35-.72-.7-1.44-1.03-2.17-.33-.73-.66-1.46-1.01-2.19-.5-1.04-1.04-2.05-1.54-3.09-.47-.97-.89-1.97-1.38-2.93l-.83-1.62c-.27-.52-.52-1.06-.77-1.59l-.72-1.51c-.24-.51-.52-.99-.79-1.49-.26-.46-.53-.92-.77-1.38l-.78-1.56c-.26-.53-.51-1.05-.78-1.57-.25-.48-.52-.94-.79-1.41l-.8-1.45-.73-1.4a47.8 47.8 0 00-1.71-2.97c-.35-.57-.69-1.14-1.02-1.72-.56-.97-1.09-1.96-1.64-2.93-.54-.95-1.1-1.89-1.65-2.84-.27-.47-.52-.95-.77-1.43-.25-.49-.48-.99-.72-1.48-.24-.48-.49-.97-.8-1.41a1.18 1.18 0 00-.3-.33v-.01a36.17 36.17 0 00-1.98-3.25c-.4-.59-.81-1.17-1.23-1.76a44.33 44.33 0 01-1.07-1.58c-.57-.89-1.13-1.79-1.72-2.67l-1.91-2.86c-.6-.91-1.22-1.81-1.86-2.68-.63-.86-1.29-1.7-1.92-2.56l-1.25-1.7c-.32-.44-.64-.89-.98-1.32l-1.33-1.69-1.06-1.31-2.51-3.21-1.09-1.37-1.32-1.68c-.74-.95-1.48-1.9-2.26-2.83-.84-1.01-1.68-2.01-2.51-3.03a113.42 113.42 0 00-3.89-4.56l-1.12-1.3-1.38-1.63-.67-.78-.89-1-1.35-1.49-1.6-1.81c-.79-.9-1.58-1.79-2.38-2.67l-2.77-3.07-2.44-2.69-2.78-3.06c-.79-.87-1.62-1.72-2.44-2.57l-1.47-1.53-1.41-1.5a84.24 84.24 0 00-2.49-2.51c-.99-.96-1.96-1.94-2.93-2.91a77.02 77.02 0 00-2.62-2.49c-1.02-.93-2.03-1.87-3.03-2.81a77.82 77.82 0 00-2.69-2.44l-1.65-1.42-1.38-1.23.01.01-.17-.15.01.01-.21-.2-.04-.04c-.05-.06-.12-.11-.18-.16l.01.01-.02-.02-.02-.02.01.01-.05-.04-.04-.04-.22-.2.03.03a2.3 2.3 0 00-.23-.21l-.6-.53c-.42-.38-.85-.74-1.29-1.1l-1.33-1.08-1.7-1.4-1.26-1.08-1.66-1.38c-.43-.35-.87-.69-1.31-1.02l-1.67-1.28c-.97-.75-1.89-1.55-2.85-2.31-.97-.8-1.97-1.58-2.97-2.35-.5-.38-1.01-.76-1.5-1.16l-1.58-1.26c-.95-.76-1.9-1.51-2.88-2.22-1.04-.76-2.1-1.48-3.15-2.22l.05.03c-.85-.6-1.69-1.2-2.52-1.81l-1.3-.94-1.23-.84c-.85-.57-1.73-1.08-2.59-1.62-.44-.28-.87-.55-1.3-.84l-1.3-.87-1.6-1.09c-.5-.34-1.01-.66-1.52-.99-1.1-.69-2.21-1.36-3.31-2.04l-3.11-1.96c-.54-.34-1.07-.69-1.62-1.02l-.8-.5c-.15-.09-.29-.2-.44-.28a.52.52 0 00-.42-.03c-.9-.52-1.8-1.03-2.72-1.49l-3.31-1.63c-1.44-.7-2.89-1.37-4.33-2.06-1.4-.67-2.79-1.35-4.2-1.98l-2.27-1.01c-.67-.3-1.34-.6-2.02-.88-.78-.33-1.57-.65-2.36-.95l-2.22-.84.01.01c-1.55-.6-3.1-1.2-4.66-1.77l-2.13-.78-2.28-.85c-.77-.28-1.55-.55-2.33-.81l-2.42-.78-2.24-.73c-.72-.24-1.44-.48-2.17-.7a237.04 237.04 0 00-7-1.99c-.74-.19-1.48-.35-2.22-.52l.06.01-3.22-.78c-1.1-.26-2.19-.53-3.3-.74l-3.41-.64a210.19 210.19 0 00-5.84-1.02l-2.27-.39a105.2 105.2 0 00-4.67-.71l-2.56-.32-2.38-.33c-1.52-.21-3.05-.35-4.58-.5-1.79-.2-3.57-.43-5.35-.64-.8-.09-1.61-.15-2.42-.21-.92-.07-1.85-.14-2.77-.23-1.57-.14-3.14-.31-4.71-.41-1.66-.09-3.32-.16-4.98-.27-1.56-.1-3.11-.24-4.67-.31l-2.57-.11-2.31-.12a47.66 47.66 0 00-4.86-.09c-1.51.03-3.02.09-4.53.09l-2.4-.01c-.82 0-1.65.01-2.47.04-.79.02-1.57.04-2.36.04l-2.23-.02a46.75 46.75 0 00-4.63.19c-.74.06-1.48.12-2.23.16l-2.28.11a200.62 200.62 0 00-4.79.31c-.71.06-1.42.1-2.14.15l-1.11.09-.56.05a.45.45 0 00-.23-.03c-.7.05-1.4.11-2.09.22-.64.1-1.27.21-1.9.33l-2.2.44c-.73.14-1.47.27-2.2.39-1.34.22-2.69.39-4.03.62-1.35.24-2.7.52-4.05.8l-3.87.82-3.81.85c-1.4.31-2.79.62-4.19.95-1.25.29-2.49.6-3.74.91l-3.83.97c-1.38.37-2.75.75-4.12 1.18-1.32.41-2.63.84-3.95 1.26a104.84 104.84 0 00-5.58 1.92c-.5.18-1 .38-1.5.55l-3.95 1.4c-.6.21-1.19.45-1.78.68a114.58 114.58 0 00-5.36 2.27c-1.21.54-2.42 1.09-3.62 1.66l-3.92 1.88c-1.18.56-2.37 1.1-3.55 1.65l-3.66 1.74-3.69 1.83c-1.2.59-2.39 1.21-3.57 1.84l-1.69.92-1.82.99-3.74 1.99c-2.37 1.26-4.67 2.63-6.98 4-1.2.71-2.4 1.41-3.58 2.14l-3.42 2.11-3.46 2.08a122.08 122.08 0 00-3.57 2.25c-1.13.75-2.26 1.5-3.41 2.24l-3.32 2.11c-1.17.75-2.32 1.51-3.48 2.28l-3.45 2.29c-1.13.75-2.24 1.52-3.34 2.31l-3.35 2.42-3.47 2.45c-.6.42-1.17.87-1.76 1.3-.52.39-1.03.81-1.54 1.21-1.02.81-2.03 1.63-3.05 2.42l-1.61 1.24-1.52 1.18c-.55.44-1.11.87-1.65 1.32l-1.57 1.33-3.24 2.76-1.62 1.36-1.43 1.23a97.02 97.02 0 00-2.99 2.74l-2.82 2.67-1.45 1.35c-.48.45-.96.89-1.43 1.35-.49.48-1 .96-1.48 1.45l-1.35 1.37c-.95.97-1.9 1.94-2.87 2.89l-1.48 1.44-1.4 1.36c-.5.5-1 .99-1.49 1.5-.46.48-.92.95-1.37 1.44-.9.96-1.79 1.93-2.7 2.88l-2.85 2.91-1.55 1.61-1.34 1.45c-.92 1.02-1.83 2.05-2.76 3.06-.92 1.02-1.86 2.02-2.8 3.02a107.74 107.74 0 00-2.59 2.88c-.89 1.03-1.74 2.1-2.6 3.16-.84 1.04-1.72 2.05-2.6 3.06-.44.51-.89 1-1.32 1.51l-.7.8-.56.64c-.45.54-.91 1.08-1.34 1.63l-1.18 1.53-1.33 1.74-1.29 1.63c-.84 1.05-1.71 2.07-2.55 3.11-.83 1.03-1.66 2.05-2.46 3.11l-2.62 3.51c-1.61 2.15-3.29 4.25-4.91 6.4l-.62.83-.69.97c-.38.53-.74 1.08-1.11 1.62l-1.11 1.68-.96 1.45c-.36.53-.71 1.06-1.08 1.58l-1.35 1.91c-.79 1.11-1.58 2.21-2.36 3.33l-.64.96-.42.64-.97 1.57a448.3 448.3 0 01-2.24 3.67c-.69 1.12-1.4 2.22-2.11 3.32l-1.22 1.85-.98 1.46c-.36.55-.73 1.1-1.08 1.67-.4.63-.79 1.27-1.17 1.92-.68 1.13-1.33 2.29-2.01 3.42a210.56 210.56 0 01-4.35 7.04c-.36.57-.73 1.15-1.08 1.73l-1.03 1.72c-.52.89-1.02 1.79-1.52 2.7l-.03.03-.61.86-.61.83-.68.91c-.24.34-.46.7-.69 1.05-.46.7-.97 1.37-1.43 2.07l-1.39 2.12.02-.03c-.38.59-.78 1.16-1.14 1.76-.25.41-.48.83-.73 1.23-.27.43-.55.85-.8 1.29l-.71 1.3-.75 1.32c-.5.87-.96 1.76-1.45 2.63-.25.45-.51.91-.75 1.37-.22.42-.41.86-.62 1.29-.12.25-.26.49-.4.73l-.19.37a.46.46 0 00-.19.2l-.02.04c-.09.17-.19.33-.31.48-.1.14-.2.27-.28.42-.38.63-.68 1.31-.98 1.98l-.97 2.17c-.36.77-.76 1.53-1.11 2.31-.33.73-.63 1.46-.93 2.2-.31.75-.65 1.47-.98 2.21-.63 1.41-1.26 2.81-1.86 4.24-.62 1.48-1.29 2.93-1.88 4.42-.63 1.57-1.18 3.16-1.79 4.74-.39.98-.81 1.96-1.22 2.93-.42.98-.76 1.99-1.15 2.99-.55 1.39-1.15 2.77-1.67 4.17-.28.75-.54 1.51-.8 2.26-.24.67-.49 1.32-.75 1.98-.29.75-.58 1.5-.85 2.25-.27.74-.51 1.49-.77 2.23-.51 1.44-1.09 2.85-1.61 4.29-.3.82-.57 1.65-.84 2.48-.25.77-.49 1.54-.75 2.3-.28.82-.57 1.64-.84 2.47-.28.84-.53 1.68-.78 2.52-.23.78-.45 1.57-.7 2.35-.26.84-.53 1.67-.78 2.51a47.9 47.9 0 00-.6 2.28l-.53 2.33v-.01.02l-.01.04.01-.03-.92 3.6c-.16.64-.3 1.29-.44 1.94l-.37 1.83c-.19.89-.4 1.78-.61 2.67-.19.8-.39 1.6-.54 2.41l-.26 1.41-.19 1.14c-.15.87-.31 1.73-.48 2.6-.17.85-.36 1.71-.51 2.56l-.24 1.42-.17 1.27-.34 2.52-.38 2.48c-.13.83-.26 1.66-.37 2.49l-.31 2.58c-.21 1.77-.46 3.54-.67 5.31-.1.82-.17 1.64-.23 2.47l-.17 2.62c-.12 1.79-.32 3.58-.44 5.37-.12 1.72-.09 3.44-.12 5.16l-.06 2.57c-.02.93-.05 1.86-.04 2.8.01.87.03 1.74.07 2.61.03.88.08 1.76.12 2.63l.1 2.56.08 2.54.04 1.53.08 1.45a57 57 0 00.31 2.93c.12.99.23 1.99.33 2.99l.26 2.83a43.6 43.6 0 001.31 7.33c.22.81.46 1.62.66 2.44.38 1.59.78 3.18 1.1 4.79.16.81.33 1.63.47 2.45l.12.74c-.03.08-.05.16-.03.25l.49 1.92c.16.59.37 1.17.56 1.75l1.19 3.63.54 1.53.53 1.53.47 1.4a81.85 81.85 0 001.14 3.18l.52 1.41 1.19 3.17 1.2 3.15c.38 1.01.81 1.99 1.23 2.98l1.25 2.99c.43 1.01.89 2 1.34 3a120.84 120.84 0 011.31 2.99l.77 1.64.63 1.31.74 1.65.3.66.31.68c.49.99 1 1.96 1.47 2.95.48 1.02.94 2.05 1.47 3.04.53.99 1.07 1.98 1.58 2.98l.67 1.31c.28.53.56 1.07.85 1.59l.74 1.28.84 1.45c.57 1.04 1.13 2.09 1.73 3.11l.79 1.31.94 1.56c.52.88.99 1.8 1.52 2.67.31.5.61 1.01.94 1.5l.93 1.39c.61.92 1.2 1.86 1.79 2.79.57.9 1.17 1.76 1.79 2.63.63.89 1.25 1.79 1.85 2.7l.89 1.36c.29.45.6.89.91 1.34.32.45.66.88 1 1.32l.96 1.25.67.92c.65.9 1.3 1.8 1.97 2.68.63.84 1.32 1.65 1.99 2.45.74.88 1.46 1.78 2.18 2.67.66.82 1.29 1.66 1.96 2.46.69.83 1.43 1.62 2.15 2.42a70.5 70.5 0 012.11 2.47c.35.43.69.87 1.05 1.29.34.41.69.82 1.05 1.22.35.39.73.75 1.11 1.12l1.05 1.05.73.76c.24.25.48.52.73.75.12.11.26.18.4.23l1.01.91c.9.97 1.78 1.97 2.64 2.97.43.5.88.98 1.34 1.46.43.44.86.88 1.28 1.34.66.72 1.29 1.47 1.96 2.18.71.75 1.44 1.49 2.14 2.25l.91 1 1.16 1.23.95.95 1.14 1.15.96.99 1.14 1.13c.7.68 1.43 1.33 2.14 1.99.74.69 1.47 1.4 2.23 2.08l1.13 1.01 1.16 1 1.18 1.04 1.05.95 1.2 1.04 1.05.88c.76.64 1.51 1.3 2.26 1.96.75.66 1.5 1.32 2.28 1.96.75.62 1.51 1.24 2.25 1.87.77.66 1.53 1.32 2.32 1.95.78.62 1.57 1.22 2.34 1.85l2.39 1.98c.73.6 1.48 1.18 2.23 1.75.8.61 1.59 1.23 2.37 1.87.78.64 1.57 1.27 2.38 1.88l1.12.82 1.26.93.03.02-.02-.02 1.61 1.23-.05-.04.44.33c.93.71 1.9 1.37 2.87 2.02l2.79 1.88c.86.59 1.71 1.18 2.59 1.74.85.54 1.72 1.05 2.57 1.57.84.52 1.67 1.05 2.5 1.59.81.52 1.6 1.06 2.42 1.56.86.52 1.73 1.01 2.57 1.55l2.42 1.54 1.29.81.58.35a12.22 12.22 0 00.5.29c.08.06.18.1.27.15l2.23 1.24c.63.36 1.25.73 1.86 1.11.6.37 1.19.76 1.78 1.14.6.39 1.23.75 1.86 1.11a110.26 110.26 0 011.94 1.09 14.55 14.55 0 00.26.15 57.32 57.32 0 013.39 2.05 26.25 26.25 0 002.57 1.42c.19.09.38.16.57.26.05.08.11.16.21.21l.3.16h-.01l.02.01.04.02-.02-.01c.7.39 1.39.81 2.09 1.21l2.11 1.15.07.04.14.08.03.02.24.13h-.01l.04.02.01.01.39.21c1.33.72 2.65 1.45 3.99 2.14l2.1 1.06c.62.31 1.23.64 1.84.97h-.01l.93.5c.35.19.7.39 1.06.57.37.19.73.39 1.11.57l2.32 1.12 2.22 1.11c.74.38 1.49.77 2.24 1.13 1.5.74 3.03 1.4 4.56 2.08.72.32 1.44.66 2.15 1l1.12.54 1.1.53 1.1.5 1.09.48c.75.33 1.5.67 2.24 1.02 1.5.71 2.98 1.44 4.52 2.07l2.3.93 2.26.95c.76.32 1.51.65 2.27.95.4.16.8.33 1.21.48l1.14.42 1.17.41 1.15.41c.77.27 1.52.57 2.28.87l2.52 1 1.32.5 1.37.48 2.55.84 2.55.89c1.55.55 3.1 1.12 4.68 1.61 1.59.49 3.18.96 4.77 1.47l2.41.78a51.85 51.85 0 004.58 1.29l2.37.57c1.28.32 2.57.64 3.84.98 1.23.33 2.46.66 3.69.97 1.25.31 2.51.59 3.77.87a254 254 0 013.75.88h-.01l.06.01.46.11h.02l.06.02.42.1 1.13.29c.76.2 1.53.4 2.3.58 1.43.34 2.89.6 4.33.9 1.48.31 2.95.64 4.42 1l.08.02-.02-.01.84.21h-.01l2.55.64c1.5.37 3.01.66 4.52.95 1.59.3 3.18.62 4.76.95a124.31 124.31 0 009.43 1.71l4.8.74 2.5.4c.77.13 1.53.28 2.29.43 1.58.31 3.16.61 4.75.86.73.11 1.46.22 2.2.31.75.09 1.51.15 2.26.24.07.05.14.09.22.09l.5.04.02.01.1.04c.05.02.1.02.14.02l.11-.01.06-.03.69.05 1.62.18c1.07.12 2.14.18 3.21.24 1.07.06 2.13.17 3.19.23l1.62.06 1.61.02 1.73.08c.63.04 1.26.09 1.89.1l.99.02h.89l1.87.01 2.68.12c.88.03 1.76.04 2.63.04 1.3 0 2.6.03 3.9.04h.39l1.36-.02 1.95-.05c1.24-.02 2.48 0 3.72-.03 1.29-.03 2.58-.12 3.88-.18 1.21-.06 2.43-.06 3.64-.13.6-.03 1.2-.07 1.79-.12l1.95-.17c1.26-.09 2.53-.16 3.8-.28.6-.06 1.21-.13 1.81-.21l1.88-.22 2.84-.24c1.22-.1 2.43-.27 3.65-.43 1.24-.16 2.49-.31 3.74-.44.65-.07 1.31-.14 1.97-.24l1.91-.3 1.9-.31c.64-.1 1.28-.18 1.92-.26a56.66 56.66 0 003.76-.63l3.73-.75 1.81-.35 1.89-.39c.6-.13 1.19-.3 1.77-.45l1.72-.45-.02.01.03-.01.03-.01h-.02a123.45 123.45 0 013.84-.85c.61-.13 1.22-.28 1.82-.43 1.14-.29 2.25-.68 3.38-1 1.25-.36 2.5-.7 3.76-1.03l1.68-.43c.62-.18 1.24-.35 1.86-.55 1.18-.38 2.34-.8 3.52-1.17l3.44-1.06 3.68-1.19c.56-.18 1.13-.35 1.68-.56.22-.09.45-.17.66-.28a42.35 42.35 0 003.15-1.2c1.05-.43 2.1-.85 3.14-1.3 1.05-.45 2.1-.91 3.14-1.4 1.05-.5 2.09-.99 3.14-1.47l-.06.03 2.92-1.3 1.01-.45 3.72-1.75c1.19-.56 2.37-1.11 3.55-1.69l3.87-1.92 3.64-1.72c1.2-.57 2.37-1.2 3.56-1.8l1.88-.94c.57-.28 1.14-.56 1.71-.86l1.1-.57.79-.43c.55-.3 1.1-.61 1.64-.93 1.17-.67 2.33-1.34 3.51-1.99 1.17-.65 2.33-1.31 3.48-1.99l3.49-2.04 1.95-1.12c.53-.31 1.07-.62 1.59-.95l3.46-2.18c.79-.48 1.58-.94 2.36-1.43l-.05.03 1.12-.69c.33-.2.65-.42.98-.63.59-.38 1.17-.78 1.75-1.18 1.28-.88 2.58-1.75 3.87-2.62l1.48-1c.33-.22.66-.44.98-.68l.89-.65c1.09-.79 2.15-1.61 3.23-2.41l3.3-2.43c1.12-.82 2.22-1.66 3.31-2.51 1.05-.82 2.1-1.62 3.16-2.42l1.5-1.14c.53-.4 1.06-.79 1.57-1.21l.92-.75.8-.68 1.4-1.22c1.02-.89 2.05-1.76 3.09-2.62h.01l.04-.04-.01.01.84-.68-.02.02 1.12-.92 1.12-.96.89-.82 1.08-1.02a169.43 169.43 0 013.89-3.65c1.06-.97 2.12-1.93 3.16-2.93a48.6 48.6 0 002.63-2.74 200.5 200.5 0 012.75-3.07l2.59-2.82c.9-.98 1.81-1.95 2.68-2.97.88-1.04 1.74-2.09 2.63-3.13.87-1.02 1.78-2 2.65-3.02.43-.51.83-1.05 1.22-1.59.37-.51.73-1.04 1.09-1.57.32-.44.63-.88.99-1.29l.14-.16h.02a.53.53 0 00.28-.23l.08-.13-.01.01c.3-.47.61-.94.95-1.39l1.12-1.48 1.02-1.32c.36-.47.74-.94 1.09-1.42.37-.51.75-1.01 1.1-1.54l1.03-1.57a83.28 83.28 0 012.04-2.98c.73-1.03 1.48-2.05 2.18-3.09.78-1.16 1.54-2.33 2.31-3.49.71-1.07 1.46-2.11 2.2-3.16.76-1.09 1.47-2.22 2.18-3.35l.72-1.13.85-1.26c.48-.69.98-1.38 1.45-2.07a34.82 34.82 0 001.58-2.46c.44-.72.85-1.45 1.29-2.16l.11-.18-.03.05.27-.43-.03.05.19-.3v.01l.06-.09c.93-1.45 1.87-2.89 2.75-4.38.88-1.5 1.7-3.04 2.54-4.56.61-1.11 1.26-2.21 1.89-3.31a91.56 91.56 0 002-3.63c.29-.55.58-1.11.89-1.66l1.11-1.97.91-1.59.47-.83.51-.93.91-1.81.8-1.66c.6-1.25 1.23-2.48 1.87-3.71l.88-1.7.5-.99.49-1.02.73-1.59.81-1.81c.61-1.32 1.24-2.63 1.86-3.95.57-1.19 1.17-2.37 1.7-3.58.26-.61.53-1.22.77-1.84l.74-1.9 1.42-3.64.81-1.95.8-1.88c.5-1.17.9-2.39 1.29-3.6l1.22-3.76c.4-1.21.79-2.43 1.21-3.64l.69-1.95c.21-.59.42-1.18.6-1.78.39-1.26.74-2.54 1.06-3.82.31-1.25.59-2.51.94-3.75.17-.61.35-1.21.51-1.82l.5-1.84c.67-2.44 1.53-4.84 1.96-7.34a.48.48 0 00.18-.38.47.47 0 00-.04-.17l.36-1.51c.13-.62.26-1.24.35-1.87.1-.64.17-1.29.25-1.93.08-.63.18-1.25.27-1.87.1-.66.22-1.32.31-1.99.18-1.37.32-2.74.48-4.11l.22-1.93c.07-.63.11-1.26.16-1.89l.17-1.99.21-2.01c.15-1.39.25-2.79.36-4.18.11-1.33.22-2.66.28-3.99l.18-4.11c.05-1.34.04-2.68.05-4.02l.04-3.95c-.09-1.57-.1-2.93-.11-4.28zm-.95 4.45l-.04 4.19-.01 2.02-.06 2.01c-.05 1.33-.11 2.65-.18 3.98a286.54 286.54 0 01-.65 7.92l-.26 2.61c-.11 1.29-.2 2.57-.35 3.85l-.48 4.1c-.15 1.34-.38 2.66-.59 3.99-.1.64-.17 1.28-.25 1.92a28 28 0 01-.28 1.8c-.18.9-.39 1.79-.6 2.68v.02c-.05.13-.07.27-.09.41a34.98 34.98 0 01-.85 3.5c-.36 1.22-.74 2.44-1.08 3.67l-.5 1.84-.51 1.82c-.35 1.24-.63 2.5-.94 3.75a62.25 62.25 0 01-1.05 3.78c-.32.97-.66 1.94-1 2.9-.33.91-.63 1.83-.94 2.75l-1.89 5.79c-.39 1.21-.82 2.4-1.32 3.57l-.82 1.91c-.25.57-.48 1.16-.71 1.74l-1.47 3.75c-.23.58-.45 1.17-.69 1.75l-.39.96-.41.95.01-.01c-.4.87-.81 1.72-1.23 2.58a212.13 212.13 0 00-2.53 5.4l-1.16 2.57-.64 1.31-.83 1.61a201.5 201.5 0 00-1.84 3.59c-.57 1.14-1.08 2.3-1.66 3.42-.18.34-.34.69-.53 1.03l-.51.93c-.28.52-.58 1.03-.87 1.54-.69 1.22-1.39 2.43-2.06 3.67l-.86 1.62-1.05 1.92c-.32.58-.66 1.15-1 1.73l-.92 1.6-2.04 3.69-.91 1.61-1.09 1.81-.89 1.39-.84 1.3-.13.22.03-.05-.27.43.03-.05-.16.26a63 63 0 00-.83 1.38l-.95 1.58c-.2.31-.38.62-.59.92l-.61.89-1.24 1.77c-.82 1.17-1.58 2.38-2.34 3.59l.03-.05-.96 1.49-.91 1.33c-.65.93-1.32 1.86-1.95 2.81-.65.97-1.28 1.96-1.94 2.93-.63.94-1.28 1.86-1.93 2.78-.75 1.05-1.51 2.1-2.22 3.19-.74 1.13-1.46 2.27-2.26 3.36-.77 1.05-1.58 2.06-2.37 3.09l-1.18 1.56c-.32.43-.62.88-.9 1.34a.47.47 0 00-.31.26c-.13.17-.29.32-.42.48l-.65.86-1.22 1.75c-.36.49-.72.98-1.11 1.46-.36.44-.74.86-1.12 1.29-.8.89-1.58 1.78-2.34 2.7-.82.99-1.64 1.98-2.49 2.94-.91 1.02-1.84 2.02-2.76 3.02-.89.97-1.78 1.93-2.66 2.91l-2.62 2.93-.54.57a109.78 109.78 0 01-2.89 2.8l-3.07 2.82c-.97.9-1.91 1.83-2.87 2.73l-1.53 1.42c-.49.45-1 .87-1.5 1.29l.02-.02-.03.02-.02.02.01-.01-.73.6.02-.01c-1.05.86-2.09 1.72-3.12 2.61l-1.41 1.22-1.59 1.37-.67.54c-1.05.85-2.14 1.65-3.22 2.47l-3.13 2.39-1.61 1.25c-.57.44-1.16.87-1.74 1.3-1.1.81-2.21 1.61-3.3 2.43-1.05.77-2.08 1.58-3.13 2.34l-1.78 1.27-1.53 1.04-3.37 2.27-1.75 1.2c-.52.35-1.04.7-1.58 1.04l.02-.01-1.15.71c-.99.6-1.99 1.2-2.97 1.81l-2.86 1.81c-.4.24-.79.49-1.2.72l-1.31.76-2.68 1.55-2.68 1.57-2.62 1.48-3.48 1.98a79.4 79.4 0 01-3.51 1.91c-1.19.6-2.39 1.19-3.58 1.8-1.2.61-2.39 1.24-3.61 1.82l-3.67 1.74c-1.3.63-2.59 1.28-3.88 1.92-1.16.57-2.34 1.12-3.51 1.67-1.22.57-2.43 1.17-3.66 1.72l-.95.43c-1.25.56-2.51 1.11-3.75 1.68l-1.77.84-1.65.77-2.24.98-2.05.85-1.88.76c-.43.17-.86.32-1.29.47-.16-.05-.33-.04-.46.07l-.09.08-.19.12c-.24.12-.48.22-.73.31-.76.27-1.53.5-2.29.75-.8.26-1.59.53-2.39.78l-2.29.71c-.78.24-1.56.47-2.34.73-1.17.38-2.32.81-3.5 1.16-.62.19-1.25.36-1.88.53l-1.78.46c-1.2.32-2.39.64-3.58 1l-1.83.56c-.56.17-1.12.31-1.68.46-1.37.31-2.76.58-4.13.91-1.37.33-2.73.7-4.09 1.04l-1.23.27-1.38.27-2.25.43-2.57.52c-.87.17-1.75.33-2.62.47-1.23.19-2.47.33-3.7.52-1.21.19-2.42.42-3.63.58-1.26.16-2.53.28-3.79.44-1.29.16-2.57.34-3.86.49l-1.93.18-1.74.15c-1.2.11-2.39.27-3.59.41l-.97.1-.92.07-1.53.1-3.56.29c-1.19.09-2.39.12-3.58.15l-1.61.07-1.62.09-1.02.05-1.07.03-1.42.01h-.41c-1.26 0-2.52.04-3.78.07-1.22.04-2.43 0-3.65-.02l-3.84-.03-1.88-.08c-.51-.03-1.02-.05-1.53-.05h-2.7l-.86-.02c-1.02-.05-2.03-.13-3.05-.17-.99-.04-1.97-.04-2.96-.06l-1.32-.08-1.18-.09c-.91-.07-1.83-.12-2.74-.18-.85-.05-1.69-.14-2.53-.24-.42-.05-.85-.1-1.27-.13l-.8-.05a4.01 4.01 0 00-.5-.09c-.63-.08-1.27-.13-1.91-.2-1.45-.17-2.9-.38-4.34-.63-1.49-.26-2.97-.57-4.46-.85-1.44-.27-2.9-.48-4.35-.71-1.55-.25-3.1-.48-4.65-.71-1.55-.23-3.09-.48-4.63-.78a373.4 373.4 0 01-4.82-.97c-1.52-.31-3.03-.61-4.56-.89-.74-.14-1.49-.28-2.23-.45-.8-.18-1.6-.36-2.4-.56l.02.01-.05-.01h-.01l-1.89-.48h.01l-.8-.2.06.01a103.8 103.8 0 00-4.64-1.05c-1.64-.33-3.29-.66-4.92-1.05l-1.87-.49-1.01-.26-.32-.08-.07-.02c-.1-.04-.22-.05-.33-.08-1.42-.36-2.85-.69-4.29-1.01a131.1 131.1 0 01-3.92-.92c-1.64-.43-3.28-.87-4.93-1.29-1.61-.41-3.23-.8-4.84-1.19a64.56 64.56 0 01-3.93-1.12c-1.62-.52-3.23-1.06-4.85-1.56-1.51-.46-3.03-.9-4.52-1.42-1.64-.58-3.27-1.17-4.91-1.73l-2.31-.76c-.74-.24-1.46-.5-2.19-.76l-2.27-.89c-.77-.31-1.55-.62-2.33-.91-.78-.29-1.56-.58-2.34-.85l-2.22-.79-2.23-.9-2.1-.89c-1.36-.58-2.74-1.11-4.1-1.69a68.3 68.3 0 01-2.16-.97l-2.06-.98c-.72-.34-1.45-.67-2.18-.99-.7-.31-1.41-.61-2.1-.95-1.47-.7-2.93-1.42-4.42-2.09-1.55-.69-3.1-1.37-4.62-2.11l-2.23-1.13c-.73-.38-1.47-.74-2.21-1.1l-2.21-1.07c-.7-.35-1.39-.73-2.08-1.1a79.94 79.94 0 00-.89-.48c-.63-.34-1.26-.68-1.9-1l-2.04-1.03a150.45 150.45 0 01-3.94-2.11L162 558l.05.03-.28-.15a.47.47 0 00-.1-.05.47.47 0 00-.1-.05l-.01-.01a.08.08 0 00-.04-.02l-1.36-.74c-.54-.3-1.08-.6-1.62-.92l-1.44-.82a.64.64 0 00-.13-.15c-.16-.13-.35-.2-.53-.29a23 23 0 01-1.92-.97c-.76-.44-1.48-.93-2.23-1.39a74.28 74.28 0 00-2.12-1.24l-.28-.16.01.01-.03-.01-.03-.02.01.01-2.24-1.25-1.22-.73-1.2-.78c-.79-.5-1.58-.99-2.39-1.45l-1.31-.74-.73-.4-.35-.2-.07-.04c-.08-.06-.18-.1-.27-.15l-.05-.03-.03-.02-.06-.03.04.02a66.08 66.08 0 01-2.89-1.79c-.81-.52-1.61-1.04-2.43-1.53-.86-.52-1.74-1.02-2.59-1.56l-2.47-1.61c-.85-.54-1.7-1.08-2.56-1.6-.85-.51-1.71-1.01-2.53-1.57l-2.57-1.75c-.78-.54-1.57-1.06-2.36-1.59l-1.21-.82-1.27-.92-.18-.14.05.04-.44-.33.01.01a181.5 181.5 0 00-3.3-2.47l-1.11-.82-1.28-1.02-1.11-.9c-.83-.66-1.67-1.3-2.51-1.95-1.57-1.2-3.04-2.51-4.59-3.72-.79-.62-1.58-1.23-2.34-1.87l-2.31-1.96-2.31-1.92c-.76-.64-1.5-1.3-2.24-1.96-.74-.66-1.51-1.3-2.27-1.93-.76-.63-1.5-1.29-2.24-1.95a109.2 109.2 0 00-2.29-2 74.29 74.29 0 01-2.28-2.06l-2.17-2.03-1.02-.95-1.09-1.05c-.66-.67-1.31-1.36-1.98-2.02l-1.01-1.01c-.35-.34-.69-.68-1.02-1.04l-.98-1.06c-.32-.35-.63-.71-.96-1.05l-1.03-1.07c-.31-.32-.63-.64-.92-.98-.68-.76-1.35-1.52-2.04-2.27-.68-.72-1.38-1.41-2.03-2.16-.65-.74-1.29-1.49-1.95-2.22l-.57-.63-.44-.47c-.37-.36-.76-.71-1.16-1.05a.49.49 0 00-.26-.1l-.17-.16-1.51-1.57-1.5-1.49c-.44-.46-.86-.92-1.26-1.41l-1.23-1.51-1.22-1.45-1.36-1.55c-.35-.39-.71-.76-1.05-1.16l-1.06-1.27-1.95-2.46c-.72-.9-1.45-1.79-2.2-2.67-.67-.8-1.31-1.62-1.94-2.45l-1.78-2.45c-.6-.82-1.23-1.63-1.86-2.44l-.87-1.2c-.26-.36-.49-.74-.73-1.11-.48-.74-.97-1.49-1.47-2.22-.55-.8-1.12-1.6-1.68-2.39-.53-.74-1.01-1.51-1.49-2.28-.59-.94-1.19-1.87-1.81-2.79-.58-.87-1.16-1.74-1.68-2.64-.56-.98-1.11-1.97-1.68-2.95-.25-.43-.52-.85-.78-1.27-.3-.48-.58-.97-.87-1.46-.48-.88-.95-1.77-1.45-2.64l-1.46-2.52-.76-1.41-.68-1.33-.84-1.62-.7-1.29-.38-.73-.42-.86c-.24-.48-.46-.98-.69-1.47-.48-1.02-.99-2.01-1.49-3.02-.48-.98-.91-1.98-1.36-2.97-.44-.98-.93-1.95-1.38-2.93-.45-.97-.85-1.95-1.29-2.93-.45-1-.93-2-1.35-3.01l-1.27-3.05a82.59 82.59 0 01-1.28-3.11l-.93-2.46-1.03-2.69-.86-2.34-.98-2.69c-.34-.96-.64-1.94-.97-2.91-.37-1.05-.75-2.09-1.09-3.15l-1.03-3.16c-.17-.5-.33-1.01-.48-1.52-.14-.5-.26-1-.39-1.51v.01l-.01-.03v-.01l-.02-.08a.48.48 0 000-.29c.02-.04.02-.03.02-.02l-.05-.28-.11-.65c-.12-.69-.25-1.39-.39-2.08-.27-1.35-.59-2.68-.91-4.02l-.51-2.07-.56-2.04a44.3 44.3 0 01-1.03-5.56l-.17-1.73c-.1-1.11-.2-2.21-.32-3.32-.12-1.16-.28-2.33-.4-3.49-.11-1.1-.18-2.2-.22-3.31v-.06.02c-.04-1.69-.1-3.38-.16-5.07-.07-1.71-.16-3.41-.2-5.12v-.2c-.03-1.83.03-3.67.08-5.5.04-1.73.03-3.46.11-5.19.04-.9.12-1.8.2-2.7l.22-2.62c.07-.83.1-1.67.16-2.5.06-.86.12-1.71.2-2.57l.44-3.5c.15-1.17.29-2.35.42-3.52.13-1.15.29-2.29.47-3.43.19-1.19.38-2.39.54-3.59l.34-2.61c.11-.83.26-1.65.42-2.47l.51-2.55.48-2.67.21-1.23.28-1.4c.17-.81.37-1.61.56-2.42.2-.85.39-1.7.56-2.56.18-.89.36-1.77.56-2.65.32-1.3.66-2.58.99-3.88.29-1.15.53-2.32.81-3.47.47-1.76 1.06-3.48 1.57-5.23.27-.92.52-1.85.82-2.76l.92-2.71.76-2.31c.25-.81.5-1.61.79-2.41.29-.8.58-1.6.89-2.4.31-.8.62-1.6.91-2.41.3-.83.57-1.67.87-2.51.28-.77.58-1.54.88-2.31.6-1.54 1.11-3.11 1.7-4.65.39-.99.81-1.96 1.2-2.95.39-.97.74-1.96 1.12-2.93.46-1.14.97-2.26 1.41-3.41.5-1.29.96-2.59 1.46-3.89.49-1.25 1.03-2.49 1.56-3.72l.87-2.04c.31-.73.64-1.46.97-2.19.32-.72.63-1.44.97-2.16l.5-1.1.42-1.03a38 38 0 01.96-2.18l1.01-2.11c.55-1.19 1.02-2.41 1.65-3.56l-.01.01.01-.02.02-.04-.02.04c.11-.18.22-.36.35-.53.11-.15.2-.31.29-.48.1-.05.18-.13.22-.23l.04-.1c.16-.31.36-.6.51-.91l.51-1.08c.4-.82.87-1.6 1.3-2.4l.68-1.25.67-1.19.71-1.27c.24-.44.47-.89.74-1.32.26-.41.53-.81.77-1.23.25-.42.48-.84.74-1.25l-.01.01.01-.01.03-.04-.02.03 1.3-2c.44-.67.87-1.34 1.34-2l.69-.98c.24-.33.45-.68.67-1.02l-.03.05c.37-.57.79-1.11 1.19-1.65l.34-.46.09.15c.63-1.1 1.24-2.21 1.86-3.31.35-.61.7-1.22 1.07-1.83l.66-1.08.73-1.15c.73-1.15 1.47-2.3 2.19-3.46.7-1.13 1.38-2.26 2.06-3.4.68-1.15 1.34-2.31 2.03-3.46l1.27-2.09c.34-.55.7-1.09 1.05-1.63l1-1.49 1.09-1.65c.75-1.15 1.49-2.3 2.21-3.47l2.24-3.67c.33-.54.66-1.08 1.01-1.62l1.01-1.53 3.59-5.06c1.07-1.52 2.09-3.09 3.11-4.65l.52-.77.42-.63.58-.82.44-.62 1.05-1.4 1.09-1.41c1.39-1.8 2.79-3.59 4.14-5.42.78-1.06 1.57-2.12 2.38-3.16l1.43-1.81 1.32-1.61 1.39-1.7.47-.59.69-.86 1.15-1.49 1.15-1.51.84-1.08.53-.65.67-.81.7-.8 2.83-3.24c.87-1 1.7-2.04 2.54-3.07l.62-.76.6-.73 1.21-1.41 1.36-1.49 1.57-1.68a181.2 181.2 0 003.23-3.55l1.55-1.72.61-.65c.28-.3.56-.61.85-.9l3.12-3.18c.93-.96 1.85-1.93 2.76-2.91a99.19 99.19 0 014.34-4.44l1.33-1.29c.98-.96 1.96-1.92 2.92-2.9s1.92-1.96 2.9-2.92c.99-.97 2-1.92 3.02-2.86 1.01-.94 2.01-1.88 3-2.83l1.52-1.43 1.4-1.27c.46-.4.92-.81 1.39-1.2l1.42-1.19c.97-.81 1.94-1.63 2.9-2.46 1.04-.89 2.07-1.79 3.14-2.64 1.06-.85 2.13-1.68 3.2-2.51 1.15-.89 2.3-1.78 3.43-2.7l1.72-1.37c.53-.42 1.07-.81 1.6-1.21.59-.44 1.19-.85 1.79-1.28l1.66-1.16c1.09-.76 2.17-1.55 3.24-2.34 1.09-.8 2.21-1.56 3.32-2.33l-.05.03 4.45-2.95c1.32-.88 2.65-1.75 3.99-2.59 1.48-.93 2.95-1.87 4.4-2.83l2.19-1.45c.36-.24.73-.46 1.1-.69l.77-.48 3.45-2.07c1.14-.69 2.28-1.4 3.41-2.1 2.43-1.5 4.9-2.95 7.37-4.39l1.95-1.12c.57-.33 1.15-.64 1.73-.96 1.1-.6 2.21-1.17 3.31-1.76l3.83-2.08c1.16-.64 2.34-1.24 3.52-1.84 1.5-.75 3-1.5 4.51-2.23 1.31-.64 2.62-1.26 3.94-1.87 1.15-.54 2.31-1.07 3.46-1.62l3.61-1.73c1.3-.61 2.61-1.2 3.92-1.79 1.16-.52 2.34-1.02 3.52-1.51 1.2-.5 2.42-.97 3.64-1.41 1.21-.43 2.43-.84 3.64-1.29a289.82 289.82 0 013.91-1.42c1.25-.42 2.5-.83 3.76-1.23 1.29-.41 2.58-.84 3.88-1.23a93.2 93.2 0 014.05-1.12l4.12-1.04c2.58-.65 5.18-1.21 7.78-1.79l3.81-.84 3.89-.82-.06.01c1.31-.27 2.61-.53 3.93-.74 1.29-.21 2.59-.37 3.88-.59.68-.12 1.36-.24 2.03-.38.64-.13 1.28-.27 1.93-.39.58-.11 1.15-.21 1.73-.29.5-.07 1.01-.11 1.51-.16l.08.02c.5.01 1-.06 1.5-.1l1.95-.13 2.1-.17c.71-.05 1.43-.1 2.14-.13 1.48-.08 2.97-.14 4.45-.23.7-.04 1.4-.11 2.1-.17.68-.06 1.36-.09 2.04-.12 1.1-.02 2.2-.01 3.3 0 1.18.01 2.35-.02 3.53-.05a93.64 93.64 0 014.77-.02l2.4-.03 2.28-.06c1.59-.04 3.18.03 4.77.11l2.31.12 2.57.11c1.58.07 3.15.21 4.72.32.84.06 1.68.1 2.52.14.76.04 1.53.07 2.29.12l2.36.19 2.55.24 2.47.2c.73.05 1.45.12 2.18.19h.05-.05l3.85.47c1.26.15 2.53.27 3.79.39l1.83.22 1.59.22 3.53.46c1.63.2 3.25.46 4.86.73l2.15.37a249.29 249.29 0 017.15 1.27l2.38.45c.72.14 1.44.31 2.16.47l5.25 1.26h-.01c.92.22 1.85.45 2.76.7.85.23 1.69.48 2.54.72.78.23 1.57.45 2.35.69a142.95 142.95 0 014.56 1.48l2.18.7a81.96 81.96 0 014.59 1.63c1.47.55 2.95 1.08 4.42 1.64l4.69 1.79c.95.37 1.91.74 2.84 1.14a218.48 218.48 0 018.77 4.02c1.36.65 2.73 1.28 4.08 1.94 1.4.69 2.81 1.37 4.19 2.1.65.36 1.29.72 1.93 1.1.08.05.17.07.26.07.05 0 .09-.02.14-.03l.07.05.71.44 1.46.93 3.01 1.9 1.69 1.05 1.58.97 1.67 1.07c.52.34 1.03.7 1.55 1.05.99.68 1.98 1.35 3 1.98l1.65 1.02 1.65 1.08c.95.67 1.89 1.36 2.83 2.04.98.71 1.97 1.39 2.97 2.08l-.05-.03.17.12c.52.37 1.05.73 1.56 1.12l1.62 1.24c.94.73 1.86 1.49 2.8 2.22l3.1 2.39c1.02.79 2.01 1.62 3 2.44.95.78 1.94 1.51 2.91 2.27.52.41 1.05.82 1.56 1.24.46.37.91.75 1.36 1.14.98.84 1.96 1.66 2.96 2.47l1.66 1.36 1.36 1.19-.02-.02.03.02.02.02-.02-.01.1.09-.01-.01.25.23.04.03.19.17.06.05.05.04.2.18-.02-.02.02.02.02.02-.02-.02.19.18.04.04.58.52c.58.53 1.18 1.04 1.77 1.55l1.96 1.71-.01-.01.01.01.03.03-.03-.03 1.06.98c.94.87 1.86 1.75 2.8 2.61l1.52 1.4 1.32 1.27c.42.4.82.82 1.23 1.23l1.41 1.4 1.51 1.48c.46.45.91.92 1.36 1.39.85.88 1.67 1.79 2.52 2.67.92.95 1.83 1.89 2.73 2.86.87.94 1.72 1.9 2.58 2.84.87.95 1.74 1.89 2.6 2.85.85.95 1.7 1.91 2.56 2.85l1.41 1.56c.43.47.84.95 1.26 1.43l2.46 2.77 1.44 1.59c.38.42.74.86 1.11 1.29l.04.04-.03-.03 2 2.35 1 1.14 1.01 1.15.99 1.18.92 1.13 1.77 2.14c.77.92 1.54 1.85 2.28 2.8.78 1 1.55 2 2.34 2.99l2.54 3.23c.79 1.01 1.6 2.01 2.41 3.01.79.98 1.53 2 2.27 3.01.75 1.02 1.51 2.03 2.27 3.03.74.97 1.43 1.98 2.11 3l2.2 3.29 1.04 1.63c.35.55.7 1.1 1.07 1.63.73 1.06 1.49 2.1 2.19 3.18l.77 1.23.74 1.29.05.05c.04.11.12.2.22.26l.03.03.22.32.24.42c.53 1 .99 2.05 1.54 3.04.53.94 1.08 1.86 1.61 2.79.56.97 1.1 1.95 1.65 2.92l.86 1.51.85 1.4a27.57 27.57 0 011.32 2.35c.4.76.79 1.52 1.2 2.27.25.46.52.9.77 1.35.29.52.56 1.04.82 1.57.48.99.95 1.98 1.5 2.93.28.49.57.99.83 1.49l.74 1.49.73 1.54.78 1.55.82 1.66.69 1.5c.47 1.02.99 2.02 1.5 3.03.24.46.46.94.67 1.41a121.11 121.11 0 001.44 3.07l.73 1.55 1.11 2.61c.36.85.75 1.68 1.14 2.51.38.87.74 1.74 1.1 2.61.35.84.73 1.67 1.1 2.5.23.54.47 1.09.69 1.64l.63 1.56.74 1.73.3.69.33.79c.41 1.06.81 2.11 1.24 3.16l.67 1.67c.22.54.42 1.08.62 1.62.18.48.34.97.51 1.45l.63 1.75c.39 1.07.76 2.15 1.12 3.23.34 1.03.71 2.05 1.06 3.07.36 1.03.7 2.07 1.08 3.09.39 1.06.76 2.12 1.12 3.19.38 1.14.78 2.26 1.18 3.39.36 1 .66 2.02 1 3.03.38 1.11.79 2.21 1.17 3.32.34 1.01.65 2.02 1 3.02.19.54.4 1.08.58 1.62l.52 1.6.64 2.17c.21.72.42 1.43.61 2.16l.53 2.13c.19.73.39 1.46.57 2.2.01.06.04.11.07.15a.5.5 0 00.04.49l.05.19c.11.57.18 1.15.31 1.71.15.63.32 1.25.52 1.87l.59 1.96c.18.64.33 1.29.48 1.93l.44 1.94.44 1.92.49 1.98.43 1.86-.01-.03.01.04.31 1.49v-.01.02l.01.05v-.01l.03.13v-.01l.1.49.01.06c.37 1.76.78 3.5 1.16 5.26v-.01l.02.09-.01-.03.13.62v-.01l.01.05v.01c.21 1 .38 2 .57 3 .19 1.03.4 2.07.62 3.1l-.01-.06.17.82c.17.83.33 1.65.45 2.49l.38 2.66c.24 1.62.55 3.23.78 4.85.19 1.33.36 2.66.56 3.99l.31 1.95c.1.64.21 1.28.29 1.93.09.71.17 1.43.24 2.14l.2 2.09.19 1.82c.04.35.08.7.1 1.05l.08 1.08c.06.87.1 1.74.17 2.61l-.01-.07.02.22v-.01l.02.23-.01-.07.02.31v-.01l.02.22v-.02l.01.19v-.02.05l.01.09v-.02.06-.01c.06.82.14 1.63.21 2.45l.14 2.05.25 3.84.13 2.23.09 2.13c.05 1.32.14 2.64.19 3.96.05 1.35.06 2.71.06 4.07.13 1.52.15 2.9.13 4.29z"/></g><defs><clipPath id="clip0"><path fill="#fff" d="M0 0h619.99v606.69H0z"/></clipPath></defs></svg>