<svg width="197" height="224" fill="none" xmlns="http://www.w3.org/2000/svg"><path fill="#f0eee9" d="M39.79 76.77l11.82 2.08-.18.99-11.81-2.09zM157.15 197l-11.81 2.09.17.98 11.82-2.08zm26.75 16.1l-6 10.39.86.5 6-10.4zM60.36 51.24l9.95-6.71.56.83-9.95 6.7zM10.78 61.38L0 56.12l.43-.9 10.79 5.26zm21.75-37.9l5.27-10.79.9.44-5.27 10.79zM5.66 106.17l3.3-11.54.97.28-3.31 11.53zm120.92 75.31l-9.94-6.71-.56.83 9.95 6.7zm20.36-35.14l-11.5 3.44.28.95 11.5-3.43zm36.31-3.51l-4.76 11.02.92.4 4.76-11.02zM98.56 93.56l-6.71-9.95.83-.56 6.7 9.95zM98.4 213.8l6.7-9.96-.83-.55-6.7 9.94zm31.42-153.1l-11.97.83-.07-1 11.97-.83zm-62.7 120.23l11.97.84.07-1-11.97-.83zm73.61-135.14L145.99 35l.9.44-5.26 10.79zM56.22 166.03l-5.26-10.79-.9.44 5.26 10.78zm50.27-134.57l-4.5-11.13.93-.37 4.5 11.12zM90.45 151.7l4.5-11.13-.93-.37-4.5 11.12zm-34.23-35.46l12 .41.03-1-12-.41zM179.37 21.9l-8.63 8.34-.7-.72 8.63-8.34zM17.57 142.14l8.64 8.33.7-.72-8.64-8.33zm156.17-82.37l2.9 11.64-.97.24-2.9-11.64zM23.2 180l-2.9 11.65.97.24 2.9-11.65zm112.88-74.42l11.53 3.3-.27.97-11.54-3.3zm60.88-.81l-9.95 6.7-.56-.82 9.95-6.71z"/></svg>