<svg width="652" height="652" xmlns="http://www.w3.org/2000/svg" xmlns:xlink="http://www.w3.org/1999/xlink"><defs><linearGradient x1="32.361%" y1="32.367%" x2="69.143%" y2="69.157%" id="d"><stop stop-color="#F5C987" offset="0%"/><stop stop-color="#5F74D4" offset="100%"/></linearGradient><circle id="a" cx="326" cy="326" r="326"/><path d="M476.573 0L438.04 77.083l-.108.054-80.11 40.063-40.106 80.232-.107.056-80.11 40.063-40.108 80.232-.108.056-80.11 40.06-40.108 80.234-.108.054L0 476.675v-.809l76.528-38.27 40.109-80.233.108-.057 80.109-40.06 40.106-80.234.108-.054 80.11-40.063 40.106-80.234.107-.054 80.11-40.06L475.767 0h.806zM130.641 0L127.2 6.88l-.105.054-80.11 40.06L6.877 127.23 0 130.668v-.807l6.34-3.169 40.106-80.234.108-.054 80.11-40.063L129.831 0h.809zm15.04 0l-8.452 16.909-.108.054-80.11 40.06-40.108 80.235-.108.053L0 145.713v-.809l16.364-8.183 40.111-80.234.108-.054 80.107-40.06L144.872 0h.808zm175.764 0L267.58 26.938l-40.109 80.234-.107.053-80.108 40.063-40.108 80.232-.108.054-80.11 40.065L0 321.51v-1.614L26.393 267.1l.108-.054 80.107-40.063 40.11-80.234.106-.054 80.11-40.063 40.108-80.231.108-.056L319.83 0h1.615zm-30.082 0l-33.81 16.909-40.11 80.234-.107.054-80.107 40.06-40.111 80.234-.105.054-80.11 40.063L0 291.424v-1.615l16.364-32.74.108-.054 80.11-40.06 40.108-80.234.108-.054 80.109-40.063 40.109-80.232.107-.054L289.748 0h1.615zm60.162 0l-73.917 36.969-40.109 80.231-.108.054-80.109 40.063-40.109 80.234-.107.054-80.107 40.063L0 351.598v-1.615l36.42-72.854.107-.054 80.11-40.063 40.106-80.232.108-.056 80.11-40.063 40.108-80.232.108-.053L349.91 0h1.615zM160.723 0l-13.468 26.938-.107.054-80.11 40.063-40.108 80.233-.108.054L0 160.756v-.809l26.393-13.198 40.109-80.234.107-.053L146.72 26.4 159.914 0h.809zM261.28 0l-13.755 6.88-40.109 80.232-.105.054-80.112 40.063-40.109 80.234-.105.054-80.11 40.063L0 261.336v-1.615l6.34-12.678.105-.056 80.11-40.063 40.108-80.232.108-.054 80.11-40.063 40.106-80.234.108-.054L259.669 0h1.612zM80.796 0L26.93 26.938 0 80.81v-1.616l26.393-52.794.108-.056L79.179 0h1.617zm30.082 0l-73.92 36.969L0 110.899v-1.615l36.42-72.855.107-.053L109.261 0h1.617zM50.714 0l-33.81 16.909L0 50.722v-1.615l16.364-32.735L49.1 0h1.615zm185.21 0l-38.533 77.083-.108.054-80.11 40.063-40.108 80.232-.108.056L0 235.973v-.806l76.528-38.272 40.109-80.234.108-.054 80.109-40.06L235.118 0h.806zm-45.122 0L167.31 46.995l-.108.056-80.11 40.06-40.106 80.235-.108.054L0 190.842v-.806l46.446-23.227 40.109-80.234.107-.054 80.11-40.063L189.994 0h.808zm30.082 0l-33.52 67.055-.108.054-80.11 40.063-40.108 80.231-.105.056L0 220.93v-.806l66.502-33.258 40.106-80.234.108-.054 80.109-40.063L220.075 0h.81zm-15.04 0l-28.506 57.024-.108.056-80.112 40.063-40.106 80.231-.108.057L0 205.887v-.806l56.475-28.243 40.106-80.234.108-.054 80.11-40.063L205.035 0h.809zm-30.082 0l-18.48 36.969-.108.054-80.11 40.06-40.105 80.234-.108.054L0 175.8v-.806l36.42-18.213 40.108-80.234.106-.054 80.109-40.063L174.953 0h.81zM386.33 0l-8.452 16.909-.108.054-80.11 40.06-40.108 80.235-.107.053-80.107 40.063-40.11 80.234-.107.054-80.11 40.063-40.108 80.234-.108.054L0 386.413v-.81l16.364-8.183 40.111-80.232.108-.056 80.107-40.063 40.108-80.231.108-.054 80.11-40.063 40.106-80.234.108-.054 80.11-40.06L385.522 0h.807zm270.73 0l-18.48 36.969-.107.054-80.11 40.063-40.106 80.231-.108.054-80.11 40.06-40.108 80.237-.108.052-80.107 40.063-40.108 80.234-80.217 40.116-40.109 80.232-.108.056-80.11 40.063-40.105 80.232-.108.054L0 657.198v-.807l36.42-18.212 40.108-80.234.106-.054 80.109-40.063 40.11-80.231.109-.057 80.107-40.063 40.108-80.231.108-.054 80.11-40.063 40.106-80.234.108-.054 80.109-40.063 40.109-80.232L638.04 36.43 656.252 0h.809zM461.535 0l-33.52 67.055-.109.054-80.109 40.063-40.108 80.231-.108.056-80.11 40.061-40.106 80.234-.108.054-80.11 40.063-40.108 80.234-.105.054L0 461.629v-.806l66.502-33.257 40.106-80.234.108-.054 80.109-40.06 40.109-80.235.107-.056 80.11-40.06 40.108-80.235.106-.054 80.11-40.063L460.724 0h.809zm130.643 0l-73.92 36.969-40.109 80.231-.107.054-80.11 40.063-40.108 80.234-.108.054-80.107 40.063-40.109 80.232-.108.053-80.109 40.064-40.109 80.231-.107.054-80.107 40.065L0 592.297v-1.615l36.42-72.854.107-.054 80.11-40.063 40.106-80.234.108-.054 80.11-40.06 40.108-80.234.108-.054 80.107-40.063 40.11-80.232.108-.056 80.11-40.063 40.106-80.232.108-.053L590.559 0h1.618zm79.926 0l-23.496 46.995-.108.056-80.107 40.06-40.108 80.235-.108.054-80.11 40.063-40.106 80.234-.108.054-80.109 40.06-40.109 80.234-.107.054-80.11 40.063-40.108 80.234-.108.054-80.11 40.063-40.106 80.232-.108.053L0 672.243v-.809l46.446-23.226 40.109-80.234.107-.054 80.11-40.063 40.108-80.232.106-.054 80.11-40.063 40.108-80.234.108-.053 80.11-40.064 40.108-80.233 80.215-40.115 40.108-80.234.108-.054 80.11-40.063L671.294 0h.808zM562.095 0l-53.867 26.938-40.106 80.234-.108.053-80.11 40.063-40.108 80.232-.105.054-80.112 40.063-40.109 80.234-.107.054-80.108 40.063-40.108 80.231-.108.057-80.11 40.063L0 562.209v-1.615L26.393 507.8l.108-.054 80.107-40.063 40.11-80.234.106-.054 80.11-40.063 40.108-80.232.108-.054 80.11-40.063 40.106-80.234.107-.054 80.11-40.063 40.108-80.231.108-.056L560.48 0h1.616zm49.844 0l-3.438 6.88-.108.054-80.11 40.06-40.108 80.235-.105.056-80.11 40.06-40.11 80.235-.109.054-80.107 40.063-40.108 80.231-.108.054-80.11 40.063L127.2 488.28l-.105.054-80.11 40.063-40.108 80.232L0 612.067v-.807l6.338-3.17 40.108-80.233.108-.054 80.11-40.063 40.108-80.232.108-.054 80.107-40.065 40.108-80.232 80.215-40.114 40.111-80.234.106-.056 80.111-40.061 40.107-80.234.107-.054 80.11-40.063L611.132 0h.807zm15.042 0l-8.454 16.909-.107.054-80.11 40.06-40.108 80.235-.108.053-80.11 40.063-40.106 80.234-.108.054-80.11 40.063-40.108 80.234-80.215 40.117-40.108 80.232-.108.054-80.11 40.063-40.108 80.234-.108.051L0 627.112v-.807l16.364-8.186 40.111-80.234.108-.053 80.107-40.061 40.108-80.234.108-.054 80.11-40.063 40.106-80.232.108-.056 80.11-40.063 40.108-80.231.107-.054 80.108-40.066 40.11-80.231.108-.054 80.11-40.06L626.173 0h.808zm15.04 0l-13.467 26.938-.106.054-80.109 40.063-40.11 80.233-80.216 40.115-40.108 80.234-.108.056-80.11 40.061-40.108 80.234-.106.054-80.109 40.063-40.109 80.231-.107.054-80.107 40.063-40.111 80.234-.108.054L0 642.155v-.807l26.393-13.2 40.109-80.232.107-.053 80.11-40.063 40.106-80.234.108-.054 80.11-40.063 40.108-80.232.108-.054 80.107-40.063 40.108-80.234.108-.054 80.11-40.063L547.8 66.515l.105-.053L628.017 26.4 641.212 0h.81zm-225.61 0l-18.48 36.969-.108.054-80.107 40.06-40.108 80.234-.108.054-80.11 40.06-40.108 80.237-.108.052-80.11 40.063-40.105 80.234-.108.053L0 416.5v-.808l36.42-18.215 40.108-80.231.106-.054 80.109-40.063 40.11-80.234.109-.054 80.107-40.06 40.108-80.235.108-.054 80.11-40.063L415.603 0h.809zm15.04 0l-23.49 46.995-.109.056-80.109 40.06-40.109 80.235-.107.054-80.11 40.063-40.108 80.234-.108.054-80.11 40.06-40.106 80.234-.108.054L0 431.544v-.809l46.446-23.227 40.109-80.234.107-.053 80.11-40.064 40.108-80.233.106-.054 80.11-40.061 40.108-80.234.108-.054 80.11-40.063L430.644 0h.807zm15.04 0l-28.507 57.024-.105.056-80.107 40.063-40.111 80.231-.108.057-80.11 40.06-40.106 80.234-.107.054-80.112 40.06-40.106 80.237-.108.054L0 446.587v-.809l56.475-28.241 40.106-80.234.108-.054 80.11-40.06 40.108-80.234.105-.054 80.11-40.063 40.11-80.234.109-.054 80.107-40.063L445.685 0h.806zM20.634 0L6.877 6.88 0 20.634v-1.613l6.34-12.68.105-.054L19.017 0h1.617zm481.299 0l-13.758 6.88-40.109 80.232-.107.054-80.11 40.063-40.106 80.234-.108.054-80.11 40.063-40.108 80.231-.105.057-80.112 40.06-40.109 80.234-.105.054-80.11 40.063L0 502.035v-1.615l6.34-12.68.105-.054 80.11-40.06 40.108-80.235.108-.054 80.11-40.065 40.106-80.23.108-.055 80.109-40.063 40.108-80.232.108-.054 80.107-40.063 40.111-80.234.106-.054L500.316 0h1.617zm30.08 0l-33.811 16.909-40.107 80.234-.108.054-80.109 40.06-40.108 80.234-.108.054-80.11 40.063-40.108 80.232-.108.054-80.107 40.065-40.111 80.232-.105.054-80.11 40.063L0 532.12v-1.615l16.364-32.735.108-.056 80.11-40.063 40.108-80.232.108-.054 80.109-40.065 40.109-80.232 80.217-40.114 40.106-80.234.108-.054 80.11-40.063 40.106-80.232.107-.054L530.398 0h1.615zM401.372 0l-13.467 26.938-.108.054-80.11 40.063-40.108 80.233-.106.054-80.109 40.061-40.109 80.234-.107.056-80.11 40.061-40.108 80.234-.108.054L0 401.456v-.81l26.393-13.197 40.109-80.232.107-.054 80.11-40.063 40.106-80.234.108-.054 80.11-40.063 40.108-80.234 80.215-40.114L400.563 0h.809zM371.29 0l-3.44 6.88-.109.054-80.107 40.06-40.108 80.235-.108.056-80.11 40.06L127.2 247.58l-.105.054-80.11 40.063-40.108 80.231L0 371.37v-.81l6.34-3.169 40.106-80.234.108-.053 80.11-40.061 40.108-80.234.108-.056 80.107-40.061 40.108-80.234.108-.054 80.11-40.063L370.48 0h.809zm203.224 675l33.448-66.91.108-.053L675 574.563v.81l-66.5 33.255L575.32 675h-.806zm-130.425 0l73.629-36.821 40.109-80.234.107-.054 80.107-40.063L675 443.9v1.615l-36.42 72.85-.107.056-80.11 40.063-40.106 80.232-.108.054L445.704 675h-1.615zm30.08 0l53.576-26.792 40.108-80.234.108-.054 80.11-40.063L675 473.987v1.617l-26.393 52.792-80.215 40.117-40.108 80.232-.108.053L475.786 675h-1.617zm-155.346 0l38.46-76.94.108-.054 80.11-40.06 40.11-80.235.106-.054 80.11-40.06 40.108-80.234.108-.057L675 318.821v.807L598.474 357.9l-40.11 80.233-.106.054-80.11 40.061-40.108 80.236-.108.054-80.11 40.06L319.633 675h-.81zm30.082 0l28.434-56.88.108-.055 80.11-40.06 40.106-80.234.107-.056 80.112-40.063 40.109-80.232.105-.054L675 348.91v.807l-56.473 28.243-40.108 80.232-.108.054-80.11 40.063-40.106 80.234-.108.054-80.109 40.063L349.713 675h-.808zm15.04 0l23.42-46.852.108-.054 80.11-40.06L507.69 507.8l.108-.054 80.11-40.063 40.108-80.234L675 363.952v.807l-46.446 23.229-40.109 80.231-.108.057-80.109 40.06-40.106 80.234-.108.054-80.11 40.063L364.755 675h-.81zm-30.08 0l33.447-66.91.108-.053 80.11-40.063 40.108-80.234.106-.054 80.11-40.06 40.108-80.235.108-.054 66.93-33.47v.806l-66.5 33.255-40.108 80.234-.108.054-80.109 40.063-40.109 80.234-80.217 40.115L334.671 675h-.806zm170.386 0l33.522-16.764 40.109-80.231.106-.056 80.109-40.064L675 504.075v1.615l-16.364 32.735-.108.054-80.11 40.063-40.108 80.231-.108.056L505.866 675h-1.615zm130.425 0l13.394-26.792.108-.054L675 634.74v.809l-26.393 13.196L635.484 675h-.808zm-255.69 0l18.409-36.821.107-.056 80.11-40.063 40.106-80.232.108-.054 80.11-40.063 40.105-80.234.108-.054L675 378.995v.81l-36.42 18.212-40.106 80.231-.108.054-80.109 40.063-40.109 80.234-.107.054-80.11 40.063L379.795 675h-.808zm270.73 0l8.38-16.764L675 649.783v.809l-16.364 8.181L650.524 675h-.808zm15.042 0l3.365-6.735.108-.054 6.769-3.385v.809l-6.337 3.17-3.099 6.195h-.806zm-130.425 0l13.467-6.735 40.109-80.232.107-.053 80.107-40.064L675 534.163v1.613l-6.337 12.677-.108.054-80.11 40.063-40.106 80.234-.108.054L535.948 675h-1.615zm85.303 0l18.405-36.821.108-.056L675 619.695v.808l-36.42 18.213L620.442 675h-.806zm-60.162 0l38.461-76.94.108-.054L675 559.52v.81l-76.526 38.269L560.28 675h-.806zm45.122 0l23.421-46.852L675 604.652v.809l-46.446 23.226L605.402 675h-.806zm-15.042 0l28.437-56.88.105-.055L675 589.606v.81l-56.473 28.243L590.362 675h-.808zm-451.217 0l18.406-36.821.108-.056 80.11-40.063 40.108-80.232.108-.054 80.107-40.063 40.11-80.234.108-.054 80.11-40.063 40.106-80.231.108-.054 80.11-40.063 40.105-80.232.108-.056L675 138.296v.809l-36.42 18.212-40.106 80.234-.108.054-80.109 40.063-40.109 80.232-.107.053-80.107 40.064-40.111 80.231-.108.054-80.107 40.063-40.109 80.234-80.217 40.117L139.144 675h-.807zm-115.385 0l33.523-16.764 40.106-80.231.108-.056 80.11-40.064 40.108-80.233.105-.054 80.11-40.061 40.11-80.234.109-.054 80.107-40.06 40.108-80.234.108-.054 80.11-40.063 40.108-80.234.106-.054 80.109-40.063L675 22.676v1.615l-16.364 32.733-.108.056-80.11 40.063-40.108 80.231-.108.057-80.107 40.06-40.11 80.234-.106.054-80.11 40.06-40.108 80.237-.108.054-80.11 40.06-40.106 80.235-.107.054-80.112 40.063-40.106 80.231-.108.056L24.567 675h-1.615zm371.075 0l13.394-26.792.106-.054 80.111-40.063 40.107-80.234 80.217-40.117 40.108-80.232.108-.054L675 394.041v.806l-26.393 13.198-40.106 80.234-.108.054-80.11 40.063-40.108 80.232-.105.053-80.11 40.064L394.835 675h-.808zm-270.73 0l23.422-46.852.105-.054 80.11-40.06 40.108-80.234 80.217-40.117 40.107-80.234.107-.054 80.11-40.063L507.69 267.1l.108-.054 80.11-40.063 40.108-80.234.108-.054L675 123.253v.809l-46.446 23.226-40.109 80.232-80.217 40.117-40.106 80.234-.108.054-80.11 40.063-40.108 80.231-.105.057-80.112 40.06-40.109 80.234-.107.054-80.108 40.063L124.104 675h-.806zm-70.263 0l13.468-6.735 40.106-80.232.108-.053 80.109-40.064 40.109-80.233.107-.054 80.11-40.063 40.108-80.234.106-.054 80.11-40.06 40.108-80.235.108-.056 80.109-40.06 40.109-80.235.107-.054 80.107-40.063L675 52.762v1.615l-6.337 12.678-.108.054-80.11 40.063-40.106 80.231-.108.056-80.11 40.061-40.108 80.234-80.217 40.117-40.108 80.234-.108.054-80.11 40.06-40.106 80.234-.108.054-80.11 40.063-40.108 80.234-.105.054L54.649 675h-1.615zm55.221 0l28.435-56.88.108-.055 80.109-40.06 40.109-80.234.107-.056 80.11-40.063 40.106-80.232.108-.054 80.11-40.063 40.106-80.234 80.217-40.114 40.11-80.234.106-.054L675 108.207v.81l-56.473 28.24-40.108 80.234-.108.054-80.11 40.063-40.106 80.232-.108.054-80.109 40.065-40.108 80.232-.108.054-80.11 40.065-40.108 80.232-.108.054-80.107 40.063L109.064 675h-.809zm60.162 0l8.381-16.764.108-.054 80.11-40.063 40.106-80.234 80.217-40.114 40.109-80.234.107-.054 80.108-40.063 40.11-80.232.108-.056 80.107-40.063 40.109-80.231.108-.054 16.795-8.4v.807l-16.364 8.183-40.109 80.234-.107.054-80.11 40.066-40.108 80.231-.108.054-80.11 40.063-40.106 80.232-.108.054-80.11 40.063-40.108 80.234-.107.051-80.107 40.066L169.226 675h-.809zm15.042 0l3.366-6.735.108-.054 80.11-40.063 40.108-80.232.108-.053 80.107-40.063 40.108-80.234 80.217-40.117 40.109-80.232.105-.054 80.112-40.063 40.106-80.234.108-.054 6.769-3.385v.809l-6.337 3.167-40.11 80.234-.105.056-80.109 40.061-40.11 80.234-80.216 40.117-40.108 80.231-.108.054-80.11 40.063-40.108 80.234-.106.054-80.109 40.063-3.098 6.196h-.807zm-30.082 0l13.395-26.792.108-.054 80.107-40.063 40.108-80.234 80.217-40.117 40.11-80.232.105-.054 80.111-40.063 40.107-80.234 80.217-40.114 40.108-80.234.108-.056L675 153.339v.809l-26.39 13.198-40.11 80.234-.107.054-80.11 40.063-40.108 80.231-.105.054-80.11 40.066-40.11 80.231-.109.054-80.107 40.063-40.108 80.232-.108.053-80.11 40.064L154.185 675h-.807zm110.225 0l33.52-16.766 40.11-80.23.109-.055 80.107-40.064 40.108-80.233.108-.054 80.11-40.061 40.108-80.234.106-.054 80.109-40.06L675 263.374v1.615l-16.364 32.735-.108.054-80.11 40.06-40.108 80.237-.108.054-80.107 40.06-40.11 80.235-.106.054-80.11 40.063-40.108 80.231-.108.056L265.216 675h-1.614zm30.082 0l13.467-6.735 40.108-80.232.106-.053 80.11-40.064 40.108-80.233.108-.054 80.109-40.063 40.109-80.234.107-.054 80.107-40.06L675 293.46v1.615l-6.337 12.678-80.218 40.117-40.106 80.234-.108.054-80.11 40.06-40.108 80.234-.108.054-80.109 40.063-40.108 80.234-.108.054L295.298 675h-1.614zm130.425 0l3.365-6.735.108-.054 80.11-40.063 40.108-80.232.105-.053 80.112-40.063 40.106-80.234 6.877-3.44v.81l-6.337 3.169-40.11 80.231-.105.054-80.109 40.063-40.11 80.234-.109.054-80.107 40.063-3.096 6.196h-.808zm-15.043 0l8.382-16.764 80.215-40.117 40.11-80.234 80.218-40.114 40.106-80.234.108-.054 16.795-8.4v.81l-16.364 8.183-40.109 80.232-80.217 40.117-40.108 80.234-.108.051-80.11 40.063L409.875 675h-.809zm-315.85 0l33.447-66.91.108-.053 80.11-40.063 40.106-80.234.108-.054 80.109-40.06 40.108-80.235.108-.054 80.11-40.063 40.108-80.231.106-.056 80.11-40.063 40.108-80.232.108-.054L675 93.165v.808l-66.5 33.256-40.108 80.234-.108.054-80.107 40.063-40.11 80.231-.108.057-80.11 40.06-40.106 80.234-80.217 40.117-40.109 80.234-.105.054-80.112 40.06L94.022 675h-.806zm-15.04 0l38.46-76.94.109-.054 80.109-40.06 40.106-80.235 80.217-40.114 40.107-80.234.107-.057 80.11-40.063 40.11-80.231.106-.054 80.11-40.063 40.108-80.234L675 78.121v.81l-76.526 38.27-40.11 80.23-.106.057-80.11 40.063-40.108 80.232-.108.056-80.11 40.06-40.106 80.234-.107.054-80.11 40.061-40.108 80.236-.108.054-80.11 40.06L78.982 675h-.806zm125.264 0l73.629-36.821 40.108-80.234.108-.054 80.11-40.063 40.106-80.231.108-.057 80.109-40.063 40.109-80.231.107-.054 80.107-40.063L675 203.199v1.615l-36.42 72.854-.107.052-80.11 40.063-40.106 80.234-80.217 40.116-40.109 80.232-.108.056-80.107 40.063-40.108 80.232-.108.054L205.057 675h-1.617zM675 233.287v1.615l-26.393 52.795-80.215 40.114-40.108 80.234-.108.054-80.107 40.063-40.109 80.234-.108.054-80.109 40.063-40.109 80.232L235.137 675h-1.617l53.575-26.792 40.109-80.234.108-.054 80.11-40.063 40.108-80.232 80.215-40.117 40.108-80.234.108-.053 80.11-40.064L675 233.287z" id="c"/></defs><g fill="none" fill-rule="evenodd"><mask id="b" fill="#fff"><use xlink:href="#a"/></mask><g mask="url(#b)"><g transform="translate(-12 -10)"><mask id="e" fill="#fff"><use xlink:href="#c"/></mask><path fill="url(#d)" mask="url(#e)" d="M0 675h675V0H0z"/></g></g></g></svg>
