<svg width="74" height="8" fill="none" xmlns="http://www.w3.org/2000/svg"><path d="M0 6.26c0-.34.17-.65.46-.83l6.16-3.8a5 5 0 015.26 0l4 2.46a5 5 0 005.25 0l4-2.47a5 5 0 015.25 0l4 2.47a5 5 0 005.25 0l4-2.47a5 5 0 015.25 0l4 2.47a5 5 0 005.25 0l4-2.47a5 5 0 015.25 0l6.16 3.8a1 1 0 01.46.84.97.97 0 01-1.48.82l-5.4-3.33a4.51 4.51 0 00-4.74 0l-4.25 2.63a5 5 0 01-5.26 0l-4-2.47a5 5 0 00-5.25 0l-4 2.47a5 5 0 01-5.25 0l-4-2.47a5 5 0 00-5.25 0l-4 2.47a5 5 0 01-5.25 0l-4.25-2.63a4.51 4.51 0 00-4.74 0l-5.4 3.33A.97.97 0 010 6.26z" fill="#EBEAE7"/></svg>