<svg width="100pt" height="100pt" viewBox="0 0 100 100" xmlns="http://www.w3.org/2000/svg"><path d="M74.58 36.46l.63-.63c2.5-2.5 2.5-6.45 0-8.75s-6.46-2.5-8.75 0l-.63.63a30.98 30.98 0 00-9.37-3.96v-7.08h-12.5v6.87A29.26 29.26 0 0021.04 52.1c0 16.04 13.12 29.16 29.17 29.16S79.37 68.13 79.37 52.1a30.04 30.04 0 00-4.79-15.63zM50 72.92c-11.46 0-20.83-9.38-20.83-20.83S38.54 31.25 50 31.25s20.83 9.38 20.83 20.84S61.46 72.92 50 72.92z"/><path d="M62.08 55.63l-8.95-5.42v-2.3c0-1.66-1.46-3.12-3.13-3.12s-3.13 1.46-3.13 3.13v5.83l11.88 7.08c.42.2 1.04.42 1.67.42 1.04 0 2.08-.63 2.7-1.46a3.08 3.08 0 00-1.04-4.17zm-10-20.21c0 2.77-4.16 2.77-4.16 0s4.16-2.78 4.16 0M35.42 52.08c0 2.78-4.17 2.78-4.17 0s4.17-2.77 4.17 0m16.66 16.67c0 2.78-4.16 2.78-4.16 0s4.16-2.78 4.16 0m16.67-16.67c0 2.78-4.17 2.78-4.17 0s4.17-2.77 4.17 0"/></svg>