<svg width="176" height="174" viewBox="0 0 176 174" fill="none" xmlns="http://www.w3.org/2000/svg">
<path fill-rule="evenodd" clip-rule="evenodd" d="M2.87454 0.295509L87.0272 56.4843C87.6169 56.8781 88.3847 56.8781 88.9744 56.4843L173.127 0.295509C173.935 -0.243895 175.026 -0.0242074 175.563 0.786196C175.755 1.07552 175.858 1.41532 175.858 1.76287V171.411C175.858 172.384 175.071 173.173 174.101 173.173C173.748 173.173 173.404 173.067 173.113 172.868L132.698 145.3C132.217 144.972 131.929 144.426 131.929 143.842V89.9147C131.929 88.9412 131.143 88.152 130.172 88.152C129.823 88.152 129.482 88.2564 129.192 88.4517L88.9809 115.559C88.3882 115.958 87.6134 115.958 87.0207 115.559L0.920875 57.5172C0.435147 57.1898 0.143799 56.6412 0.143799 56.0542L0.143799 1.76287C0.143799 0.78937 0.930497 0.000188514 1.90094 0.000188514C2.2474 0.000188514 2.58613 0.102934 2.87454 0.295509Z" fill="#CD9E67"/>
<path fill-rule="evenodd" clip-rule="evenodd" d="M2.86999 118.234L42.0701 143.605C42.8888 144.134 43.1224 145.227 42.5919 146.045C42.4639 146.242 42.2976 146.412 42.1028 146.544L2.90267 173.168C2.09596 173.716 0.997288 173.507 0.448723 172.701C0.249522 172.408 0.143005 172.063 0.143005 171.709V119.714C0.143005 118.74 0.93385 117.95 1.90941 117.95C2.2503 117.95 2.58391 118.048 2.86999 118.234Z" fill="#626262"/>
</svg>
