<svg width="36" height="50" fill="none" xmlns="http://www.w3.org/2000/svg"><g clip-path="url(#clip0)" fill="#2D2D2C"><path d="M35.417 33.126a3.246 3.246 0 00-3.23-3.229c-.363 0-.677.053-.988.157l-.002-27.918A1.869 1.869 0 0029.321.26H1.876A1.869 1.869 0 000 2.136v39.116c0 1.041.834 1.876 1.876 1.876l10.624-.002 2.447 2.917c1.927 2.291 4.74 3.646 7.71 3.646h3.853a8.869 8.869 0 006.303-2.604 8.864 8.864 0 002.604-6.303v-7.656zM3.749 6.354h23.645v22.189c-.52.053-.988.156-1.406.417a3.19 3.19 0 00-2.917-1.823c-.468 0-.885.104-1.302.26l.002-6.563c0-.885-.364-1.666-.938-2.291-.625-.625-1.406-.938-2.29-.938-1.77 0-3.23 1.459-3.23 3.282v15.05l-1.772-1.77c-1.094-1.094-2.864-1.248-4.166-.416-.782.52-1.302 1.355-1.406 2.24a1.249 1.249 0 000 .624H3.802V6.354H3.75zM31.457 45.73a6.939 6.939 0 01-4.895 2.03H22.71a8.094 8.094 0 01-6.197-2.917l-6.303-7.499a1.319 1.319 0 01-.313-1.041c.053-.365.26-.678.573-.886.208-.156.468-.207.729-.207.364 0 .677.157.938.364l2.5 2.5c.417.418 1.095.574 1.666.314.574-.26.938-.781.938-1.406V20.834a1.29 1.29 0 011.302-1.302c.364 0 .678.157.938.364.26.26.364.574.364.938v11.094a.988.988 0 101.978 0v-1.51a1.29 1.29 0 011.302-1.301 1.29 1.29 0 011.302 1.302v2.864a.988.988 0 101.978 0l.002-1.511a1.29 1.29 0 011.302-1.302 1.29 1.29 0 011.302 1.302v2.864a.988.988 0 101.977 0v-1.509a1.29 1.29 0 011.302-1.302 1.29 1.29 0 011.302 1.302v7.709c-.101 1.873-.832 3.593-2.134 4.895z"/><path d="M12.968 18.697a.947.947 0 001.302-.364c.885-1.563 2.5-2.5 4.323-2.5 1.77 0 3.439.937 4.323 2.5.157.313.468.468.835.468.156 0 .313-.053.468-.104a.946.946 0 00.364-1.302c-1.199-2.136-3.49-3.439-5.937-3.439s-4.74 1.303-5.936 3.439c-.366.47-.21 1.094.258 1.302z"/></g><defs><clipPath id="clip0"><path fill="#fff" d="M0 0h35.417v50H0z"/></clipPath></defs></svg>
