<svg width="59" height="50" fill="none" xmlns="http://www.w3.org/2000/svg"><g clip-path="url(#clip0)" fill="#2D2D2C"><path d="M53.789.586H4.96A4.881 4.881 0 00.078 5.47v39.063a4.884 4.884 0 004.883 4.882h48.828a4.884 4.884 0 004.883-4.882V5.469A4.884 4.884 0 0053.789.586zM26.445 5.47a1.952 1.952 0 110 3.905 1.952 1.952 0 010-3.905zm-8.789 0a1.956 1.956 0 011.382 3.335 1.952 1.952 0 11-1.382-3.335zm-8.788 0a1.952 1.952 0 110 3.905 1.952 1.952 0 010-3.905zm47.85 39.063a2.929 2.929 0 01-2.929 2.93H4.961a2.929 2.929 0 01-2.93-2.93v-31.25H56.72v31.25z"/><path d="M36.943 31.191l-6.836-7.812a.98.98 0 00-.737-.337.98.98 0 00-.738.337l-6.836 7.812a.978.978 0 000 1.23 17.993 17.993 0 013.516 6.505 2.932 2.932 0 00-1.68 3.256 2.927 2.927 0 002.813 2.349h5.859a2.929 2.929 0 001.172-5.606 17.991 17.991 0 013.515-6.503.978.978 0 00-.048-1.23zm-5.42 7.48h-4.297a18.283 18.283 0 00-3.437-6.786l4.61-5.264v3.535a1.954 1.954 0 101.952 0v-3.535l4.61 5.264a18.361 18.361 0 00-3.438 6.787z"/><path d="M46.953 17.188H45a.976.976 0 00-.977.976H31.328a.978.978 0 00-.976-.977h-1.953a.976.976 0 00-.977.977H14.727a.978.978 0 00-.976-.977h-1.954a.976.976 0 00-.976.977v1.953a.977.977 0 00.976.977h1.954a.978.978 0 00.976-.977h6.64A13.582 13.582 0 0013.81 30.86h-.058a.976.976 0 00-.977.976v1.953a.978.978 0 00.977.977h1.953a.978.978 0 00.976-.977v-1.953a.978.978 0 00-.918-.976c.527-5.46 5.43-9.863 11.719-10.625a.977.977 0 00.918.859h1.953a.976.976 0 00.977-.85c6.26.762 11.161 5.166 11.718 10.625a.977.977 0 00-.976.967v1.953a.978.978 0 00.976.977h1.954a.978.978 0 00.976-.977v-1.953a.977.977 0 00-.976-.976h-.06a13.582 13.582 0 00-7.558-10.743h6.64a.977.977 0 00.977.977h1.953a.978.978 0 00.977-.977v-1.953a.977.977 0 00-.977-.977z"/></g><defs><clipPath id="clip0"><path fill="#fff" d="M0 0h58.75v50H0z"/></clipPath></defs></svg>
