<svg width="52" height="50" fill="none" xmlns="http://www.w3.org/2000/svg"><g clip-path="url(#clip0)" fill="#2D2D2C"><path d="M50.658 49.671h-50A.66.66 0 010 49.013V47.04a.66.66 0 01.658-.657h50a.66.66 0 01.658.657v1.974a.66.66 0 01-.658.658zM9.21 26.645v15.131c0 .728-.588 1.316-1.315 1.316H3.947a1.315 1.315 0 01-1.315-1.316V26.645c0-.727.588-1.316 1.315-1.316h3.948c.727 0 1.316.588 1.316 1.316zM22.368 14.803v26.973c0 .728-.588 1.316-1.315 1.316h-3.948a1.315 1.315 0 01-1.316-1.316V14.803c0-.728.589-1.316 1.316-1.316h3.948c.727 0 1.315.588 1.315 1.316zM35.526 21.382v20.394c0 .728-.588 1.316-1.316 1.316h-3.947a1.315 1.315 0 01-1.316-1.316V21.382c0-.728.589-1.316 1.316-1.316h3.948c.727 0 1.315.588 1.315 1.316zM48.684 14.803v26.973c0 .728-.588 1.316-1.316 1.316h-3.947a1.315 1.315 0 01-1.316-1.316V14.803c0-.728.589-1.316 1.316-1.316h3.947c.728 0 1.316.588 1.316 1.316z"/><path d="M45.395.329a3.29 3.29 0 00-3.29 3.29c0 .295.052.575.124.848l-7.417 3.708a3.269 3.269 0 00-2.575-1.267 3.269 3.269 0 00-2.575 1.267l-7.416-3.708c.072-.273.123-.553.123-.849a3.29 3.29 0 10-6.579 0c0 .61.177 1.17.463 1.658L7.87 12.821a3.267 3.267 0 00-1.948-.65 3.29 3.29 0 103.29 3.29c0-.61-.178-1.17-.463-1.658l8.382-7.545c.548.403 1.216.65 1.948.65a3.269 3.269 0 002.575-1.267l7.417 3.708a3.296 3.296 0 00-.123.848 3.29 3.29 0 106.579 0c0-.295-.052-.575-.124-.848l7.417-3.708a3.268 3.268 0 002.575 1.267 3.29 3.29 0 100-6.579zM5.92 16.776a1.315 1.315 0 11-.002-2.63 1.315 1.315 0 01.002 2.63zM19.08 4.934a1.315 1.315 0 11-.002-2.63 1.315 1.315 0 01.002 2.63zm13.158 6.58a1.315 1.315 0 11-.002-2.63 1.315 1.315 0 01.002 2.63zm13.158-6.58a1.315 1.315 0 11-.002-2.63 1.315 1.315 0 01.002 2.63z"/></g><defs><clipPath id="clip0"><path fill="#fff" d="M0 0h51.316v50H0z"/></clipPath></defs></svg>
