<svg width="50" height="50" fill="none" xmlns="http://www.w3.org/2000/svg"><path d="M43.75 0H6.25A6.253 6.253 0 000 6.25v37.5A6.253 6.253 0 006.25 50h37.5A6.253 6.253 0 0050 43.75V6.25A6.253 6.253 0 0043.75 0zm3.75 43.75a3.753 3.753 0 01-3.75 3.75H6.25a3.754 3.754 0 01-3.75-3.75V6.25A3.753 3.753 0 016.25 2.5h37.5a3.753 3.753 0 013.75 3.75v37.5z" fill="#2D2D2C"/><path d="M35 16.25h-6.47a3.745 3.745 0 00-7.06 0H15a1.251 1.251 0 000 2.5h6.47a3.745 3.745 0 007.06 0H35a1.251 1.251 0 000-2.5zm-10 2.5a1.252 1.252 0 01-.885-2.135 1.252 1.252 0 011.77 1.77 1.25 1.25 0 01-.885.365zM35 31.25h-6.47a3.745 3.745 0 00-7.06 0H15a1.251 1.251 0 000 2.5h6.47a3.745 3.745 0 007.06 0H35a1.251 1.251 0 000-2.5zm-10 2.5a1.252 1.252 0 01-.885-2.135 1.252 1.252 0 011.77 1.77 1.25 1.25 0 01-.885.365z" fill="#2D2D2C"/><path d="M32.5 21.25a3.753 3.753 0 00-3.53 2.5H15a1.251 1.251 0 000 2.5h13.97a3.747 3.747 0 006.598.912A3.749 3.749 0 0032.5 21.25zm0 5a1.252 1.252 0 01-.885-2.135 1.252 1.252 0 011.77 1.77 1.25 1.25 0 01-.885.365z" fill="#2D2D2C"/></svg>
